<?xml version="1.0" standalone="no"?>
<!DOCTYPE svg PUBLIC "-//W3C//DTD SVG 20010904//EN"
 "http://www.w3.org/TR/2001/REC-SVG-20010904/DTD/svg10.dtd">
<svg version="1.0" xmlns="http://www.w3.org/2000/svg"
 width="150px" height="150px" viewBox="0 0 150 150"
 preserveAspectRatio="xMidYMid meet">

<g transform="translate(0.000000,720.000000) scale(0.100000,-0.100000)"
fill="#000000" stroke="none">
<path d="M3120 6830 c-13 -8 -12 -10 3 -10 9 0 17 5 17 10 0 12 -1 12 -20 0z"/>
<path d="M2795 6820 c4 -6 11 -8 16 -5 14 9 11 15 -7 15 -8 0 -12 -5 -9 -10z"/>
<path d="M3875 6820 c3 -5 8 -10 11 -10 2 0 4 5 4 10 0 6 -5 10 -11 10 -5 0
-7 -4 -4 -10z"/>
<path d="M4130 6826 c0 -2 7 -6 15 -10 8 -3 15 -1 15 4 0 6 -7 10 -15 10 -8 0
-15 -2 -15 -4z"/>
<path d="M2662 6748 c3 -49 5 -53 29 -56 30 -3 55 21 42 40 -4 7 -8 24 -8 38
0 21 -5 26 -33 28 l-33 3 3 -53z m48 29 c0 -8 -3 -17 -7 -20 -9 -9 -34 13 -27
24 8 14 34 11 34 -4z m8 -54 c5 -18 -28 -29 -38 -12 -5 7 -6 17 -3 22 7 12 35
5 41 -10z"/>
<path d="M2756 6777 c-19 -29 -11 -62 21 -83 24 -15 27 -15 52 3 14 11 27 30
29 42 8 54 -73 84 -102 38z m81 -13 c12 -19 11 -24 -5 -44 -23 -28 -59 -20
-68 16 -13 50 44 72 73 28z"/>
<path d="M2926 6778 c-21 -30 -20 -44 4 -68 25 -25 62 -26 83 -2 19 21 22 32
7 32 -5 0 -10 -6 -10 -14 0 -20 -35 -29 -60 -16 -38 20 -20 80 25 80 12 0 26
-5 33 -12 8 -8 12 -8 12 -1 0 30 -74 30 -94 1z"/>
<path d="M3053 6745 c0 -33 2 -45 4 -27 2 18 2 45 0 60 -2 15 -4 0 -4 -33z"/>
<path d="M3100 6758 c-21 -46 -28 -87 -9 -55 5 9 20 17 31 17 12 0 30 -8 41
-17 23 -20 22 -18 -9 55 -10 23 -22 42 -27 42 -4 0 -17 -19 -27 -42z m40 -3
c0 -8 -7 -15 -15 -15 -9 0 -12 6 -9 15 4 8 10 15 15 15 5 0 9 -7 9 -15z"/>
<path d="M3200 6780 c-11 -11 -20 -27 -20 -35 0 -23 37 -55 65 -55 35 0 68 35
59 63 -3 12 -11 28 -16 35 -16 19 -66 14 -88 -8z m80 -10 c21 -39 -9 -78 -51
-65 -42 14 -29 85 16 85 14 0 29 -8 35 -20z"/>
<path d="M3360 6745 c0 -52 1 -55 26 -55 43 0 64 17 64 53 0 42 -15 57 -57 57
l-33 0 0 -55z m68 33 c21 -21 14 -57 -14 -70 -28 -13 -45 0 -39 31 2 9 4 24 4
34 1 20 31 23 49 5z"/>
<path d="M3470 6757 c0 -31 6 -49 20 -62 19 -17 21 -17 40 0 14 13 20 31 20
62 0 58 -18 55 -22 -4 -2 -35 -7 -48 -18 -48 -11 0 -16 13 -18 48 -4 59 -22
62 -22 4z"/>
<path d="M3582 6788 c-7 -7 -12 -26 -12 -43 0 -17 5 -36 12 -43 17 -17 63 -15
78 3 14 17 0 21 -17 4 -17 -17 -52 -1 -59 28 -10 38 17 61 56 46 17 -6 30 -8
30 -3 0 21 -69 27 -88 8z"/>
<path d="M3720 6792 c0 -4 4 -12 9 -17 5 -6 14 -27 21 -47 6 -21 15 -38 19
-38 8 0 51 85 51 100 0 25 -18 6 -29 -30 -6 -22 -15 -40 -20 -40 -4 0 -13 18
-20 40 -6 22 -16 40 -21 40 -6 0 -10 -4 -10 -8z"/>
<path d="M3851 6755 c-21 -45 -29 -85 -10 -52 13 22 65 23 73 1 4 -9 9 -15 12
-12 8 9 -35 108 -47 108 -4 0 -16 -20 -28 -45z m39 0 c0 -8 -4 -15 -10 -15 -5
0 -10 7 -10 15 0 8 5 15 10 15 6 0 10 -7 10 -15z"/>
<path d="M3995 6785 c-3 -8 -7 -22 -10 -30 -2 -8 0 -17 4 -20 5 -3 7 -14 4
-25 -5 -17 0 -20 29 -20 59 0 90 57 50 93 -23 21 -71 22 -77 2z m63 -7 c18
-18 14 -56 -7 -68 -33 -17 -39 -12 -39 35 0 36 3 45 17 45 9 0 22 -5 29 -12z"/>
<path d="M4117 6748 c-25 -54 -26 -78 -3 -45 16 21 66 23 66 2 0 -8 5 -15 10
-15 6 0 10 2 10 4 0 11 -42 96 -50 101 -5 3 -20 -18 -33 -47z m43 0 c0 -5 -6
-8 -14 -8 -9 0 -12 7 -9 21 4 16 8 17 14 7 5 -7 9 -16 9 -20z"/>
<path d="M4226 6785 c-44 -44 9 -120 64 -92 52 27 41 99 -16 105 -19 2 -38 -3
-48 -13z m72 -7 c19 -19 14 -56 -8 -68 -46 -25 -88 23 -54 61 20 22 44 25 62
7z"/>
<path d="M4378 6793 c7 -3 12 -24 12 -54 0 -27 5 -49 10 -49 6 0 10 22 10 49
0 30 5 51 13 54 6 3 -4 5 -23 5 -19 0 -29 -2 -22 -5z"/>
<path d="M4460 6758 c-24 -52 -27 -82 -5 -51 8 12 23 20 32 18 10 -2 21 -4 26
-4 4 -1 7 -8 7 -16 0 -8 5 -15 11 -15 6 0 9 6 6 13 -31 78 -41 97 -49 97 -5 0
-18 -19 -28 -42z m40 -10 c0 -5 -6 -8 -14 -8 -9 0 -12 7 -9 21 4 16 8 17 14 7
5 -7 9 -16 9 -20z"/>
<path d="M4574 6792 c-24 -16 -35 -51 -22 -71 28 -46 84 -46 108 -1 25 47 -40
103 -86 72z m57 -12 c35 -19 18 -80 -22 -80 -21 0 -49 26 -49 45 0 16 27 45
41 45 6 0 19 -5 30 -10z"/>
<path d="M2968 6733 c6 -2 18 -2 25 0 6 3 1 5 -13 5 -14 0 -19 -2 -12 -5z"/>
<path d="M2663 6211 l-41 -59 27 -5 c30 -6 47 3 121 72 l55 50 -61 1 -60 0
-41 -59z"/>
<path d="M2397 6120 c-20 -27 -37 -54 -37 -60 0 -5 18 -10 39 -10 33 0 43 5
62 31 l22 31 29 -31 c23 -25 37 -31 69 -31 21 0 39 3 39 7 0 3 -18 30 -40 60
-40 52 -41 53 -93 53 -52 0 -54 -1 -90 -50z"/>
<path d="M4600 6117 c-22 -30 -40 -57 -40 -60 0 -4 19 -7 43 -7 37 0 47 5 66
31 l23 31 20 -31 c17 -27 26 -31 64 -31 24 0 44 3 44 6 0 3 -17 30 -37 60 -38
53 -38 54 -90 54 -52 0 -53 -1 -93 -53z"/>
<path d="M1660 6105 c0 -50 -8 -47 110 -49 l65 -1 -4 -247 -3 -248 61 0 61 0
0 245 c0 189 3 245 13 246 6 0 46 2 87 2 l75 2 3 48 3 47 -235 0 -236 0 0 -45z"/>
<path d="M2149 6130 c-4 -81 -8 -75 54 -78 l57 -3 0 51 0 50 -55 0 c-48 0 -55
-3 -56 -20z"/>
<path d="M3805 6133 c4 -10 47 -130 95 -268 48 -137 93 -262 99 -277 10 -26
14 -28 73 -28 l63 0 99 274 c54 150 102 280 107 287 6 9 9 0 9 -28 l0 -43 55
0 55 0 0 50 0 50 -119 0 -118 0 -70 -207 c-39 -115 -74 -207 -79 -206 -5 1
-18 30 -29 65 -12 35 -43 127 -69 206 l-48 142 -65 0 c-58 0 -64 -2 -58 -17z"/>
<path d="M5034 6122 c-12 -9 -36 -25 -53 -34 -27 -15 -31 -23 -31 -58 0 -36
-2 -40 -25 -40 -23 0 -25 -4 -25 -45 0 -41 2 -45 24 -45 l24 0 3 -150 c4 -140
6 -151 27 -172 19 -20 33 -23 91 -23 38 0 72 3 76 7 4 4 4 25 0 48 -6 37 -9
41 -30 36 -46 -12 -56 14 -53 138 l3 111 38 3 c37 3 37 4 37 47 0 43 0 44 -37
47 l-38 3 -5 72 c-5 71 -5 71 -26 55z"/>
<path d="M2415 5985 c-82 -44 -115 -106 -115 -215 0 -121 42 -186 134 -211 50
-14 133 -6 175 15 33 18 84 86 72 98 -4 4 -27 11 -52 14 -41 6 -48 3 -76 -25
-17 -17 -38 -31 -47 -31 -28 0 -63 22 -79 50 -34 57 -31 59 125 62 l142 3 -2
50 c-4 65 -37 131 -85 169 -31 25 -49 31 -100 34 -44 2 -71 -2 -92 -13z m140
-100 c14 -13 25 -36 25 -50 0 -25 -1 -25 -79 -25 -44 0 -83 4 -86 10 -7 11 9
45 33 73 23 26 78 22 107 -8z"/>
<path d="M2915 5984 c-16 -8 -37 -22 -46 -30 -22 -20 -31 -17 -27 9 3 20 -1
22 -47 22 l-50 0 -3 -212 -2 -213 55 0 55 0 0 113 c1 187 21 237 94 237 65 0
76 -30 76 -211 l0 -139 55 0 55 0 0 174 c0 164 -1 175 -23 207 -12 18 -34 39
-47 46 -35 18 -109 16 -145 -3z"/>
<path d="M3280 5982 c-19 -10 -48 -38 -65 -61 -26 -37 -30 -53 -34 -123 -4
-96 15 -153 64 -197 59 -51 147 -53 205 -5 l30 26 0 -54 c0 -62 -6 -73 -43
-87 -46 -18 -84 -13 -109 13 -17 17 -39 26 -80 31 -56 6 -58 6 -58 -17 0 -37
37 -88 78 -105 45 -19 172 -21 223 -4 47 15 75 46 87 96 6 22 12 141 14 265
l3 225 -52 3 c-51 3 -53 2 -53 -23 l0 -26 -36 27 c-47 36 -124 43 -174 16z
m171 -101 c29 -29 34 -52 29 -126 -4 -58 -48 -105 -99 -105 -55 0 -99 85 -86
168 13 90 96 123 156 63z"/>
<path d="M4612 5979 c-76 -38 -112 -107 -112 -213 0 -81 34 -154 85 -186 56
-35 156 -39 215 -8 38 20 90 76 90 98 0 4 -25 11 -55 17 -49 9 -55 8 -61 -9
-3 -10 -16 -26 -29 -34 -46 -30 -119 8 -127 66 l-3 25 144 3 143 3 -7 57 c-14
124 -76 190 -184 199 -44 3 -65 0 -99 -18z m142 -91 c14 -13 27 -34 28 -48 3
-25 2 -25 -79 -28 l-83 -3 0 26 c0 35 42 75 79 75 17 0 41 -10 55 -22z"/>
<path d="M2147 5983 c-4 -3 -7 -100 -7 -215 l0 -208 60 0 60 0 0 215 0 215
-53 0 c-30 0 -57 -3 -60 -7z"/>
<path d="M4350 5775 l0 -215 55 0 55 0 0 215 0 215 -55 0 -55 0 0 -215z"/>
<path d="M5624 5748 c-43 -86 -156 -187 -256 -230 l-48 -20 0 -89 c0 -48 4
-90 8 -93 21 -13 252 120 252 145 0 5 5 9 10 9 7 0 10 -142 10 -405 l0 -406
103 3 102 3 3 558 2 557 -85 0 -84 0 -17 -32z"/>
<path d="M4640 5432 l0 -58 53 1 52 0 3 58 3 57 -56 0 -55 0 0 -58z"/>
<path d="M2923 5360 c-75 -11 -165 -60 -178 -97 -7 -19 -16 -27 -27 -25 -10 2
-39 -17 -68 -44 l-50 -47 0 -73 c0 -40 -4 -74 -8 -76 -4 -1 -31 -31 -59 -65
-50 -61 -71 -99 -59 -110 3 -4 6 -1 6 7 0 16 100 140 113 140 5 0 2 -12 -8
-26 -9 -14 -14 -32 -11 -39 3 -8 1 -17 -3 -19 -5 -3 -6 -17 -3 -31 5 -30 35
-34 54 -6 19 26 28 28 39 9 5 -9 15 -15 22 -12 15 5 47 -75 48 -121 0 -26 2
-27 9 -10 5 11 9 32 9 46 1 28 38 110 54 121 6 4 2 17 -12 33 -11 15 -21 33
-21 40 0 7 -7 18 -15 25 -8 7 -15 17 -15 22 0 5 11 -4 25 -20 14 -17 25 -37
25 -45 0 -8 7 -17 15 -21 13 -5 14 -2 4 15 -6 11 -8 23 -5 27 4 3 -4 16 -16
29 -18 20 -20 28 -12 60 10 40 37 56 48 28 4 -12 1 -15 -12 -11 -28 9 -24 -24
5 -51 28 -26 48 -30 39 -8 -3 8 0 28 6 43 14 36 16 75 3 84 -7 5 -6 8 1 8 6 0
17 -7 24 -15 18 -21 35 -19 99 14 68 35 161 49 161 24 0 -9 -10 -28 -22 -41
l-23 -25 46 7 47 7 6 -37 c9 -43 5 -49 -24 -34 -32 17 -37 3 -7 -21 15 -11 27
-26 27 -34 0 -18 -25 -26 -39 -12 -9 9 -16 8 -31 -1 -18 -11 -20 -10 -20 19 0
19 -4 28 -11 23 -7 -4 -9 -24 -5 -54 5 -35 3 -49 -6 -53 -7 -2 -10 -7 -6 -11
13 -14 46 13 41 33 -4 16 -1 19 16 14 27 -7 27 -8 -9 -70 -35 -60 -107 -123
-142 -123 -13 0 -43 16 -65 35 -52 44 -67 46 -25 2 24 -25 30 -38 25 -57 -6
-24 -5 -24 13 -8 23 20 64 14 65 -11 0 -13 1 -13 6 -1 3 8 15 23 27 32 20 16
21 16 32 -20 9 -32 8 -40 -9 -59 -22 -25 -16 -43 7 -24 12 10 20 10 38 -1 l23
-13 -30 -3 c-39 -4 -64 -38 -35 -47 11 -4 18 -11 15 -16 -4 -5 3 -9 14 -9 33
0 34 18 1 25 -16 4 -30 11 -30 16 0 8 8 10 52 13 27 2 32 15 13 36 -24 27 -5
26 24 -1 16 -15 31 -20 49 -16 26 5 27 4 24 -32 -4 -42 17 -61 39 -35 10 13
14 12 30 -2 38 -34 77 10 57 65 -13 36 8 54 56 49 29 -3 44 0 53 11 11 14 13
14 25 -2 23 -31 16 -90 -15 -123 -15 -16 -27 -37 -27 -46 0 -10 -7 -18 -15
-18 -17 0 -20 16 -5 25 14 9 9 74 -7 87 -22 18 -15 24 21 20 23 -3 35 1 39 12
8 20 -13 33 -24 15 -7 -11 -14 -11 -41 -1 -44 16 -60 -1 -25 -28 34 -27 35
-44 2 -36 -14 4 -25 2 -25 -4 0 -5 10 -10 22 -10 20 0 18 -4 -17 -40 -42 -43
-56 -48 -75 -25 -18 22 -48 18 -55 -6 -6 -16 -12 -19 -33 -14 -25 5 -25 5 6
-14 31 -20 41 -44 23 -55 -14 -9 0 -46 22 -58 17 -9 24 -7 37 10 17 20 17 20
43 -10 28 -32 35 -58 15 -58 -6 0 -8 -3 -4 -7 4 -5 14 0 21 11 12 16 11 23 -8
52 -12 18 -30 37 -39 41 -15 7 -14 10 6 24 20 16 23 15 45 -2 13 -11 21 -22
17 -26 -3 -4 -12 -1 -18 5 -23 23 -31 12 -10 -11 12 -13 22 -30 22 -37 0 -26
20 5 22 34 2 21 7 26 21 22 11 -3 27 0 37 7 14 8 25 8 47 -3 46 -24 49 -24 31
-3 -22 24 -23 33 -4 33 8 0 22 -10 31 -22 l16 -23 -3 30 c-2 18 2 30 10 31 6
1 22 2 35 3 15 1 28 13 41 42 11 22 28 45 39 50 31 17 30 3 -3 -29 -37 -38
-38 -64 -3 -97 26 -23 26 -25 7 -25 -11 0 -29 7 -40 15 -27 20 -40 19 -21 -3
10 -10 15 -21 13 -23 -3 -2 29 -4 70 -4 77 0 97 15 33 25 -32 5 -33 6 -13 17
23 13 36 53 39 115 1 23 10 47 22 60 15 16 21 35 20 64 l-2 42 -24 -19 c-18
-14 -27 -16 -37 -8 -11 9 -15 7 -20 -5 -8 -21 -21 -20 -28 2 -3 9 -4 4 -2 -11
2 -19 -3 -32 -18 -42 -31 -22 -39 -18 -20 10 15 24 16 27 1 38 -11 8 -15 20
-11 35 7 23 20 29 26 12 2 -5 13 -7 26 -4 19 6 22 13 22 56 0 31 4 47 10 43 6
-4 9 -12 8 -18 -1 -7 3 -22 10 -34 7 -12 9 -29 5 -39 -4 -12 -2 -15 8 -12 8 3
13 14 11 24 -5 34 -5 65 1 70 3 3 14 0 26 -7 40 -26 50 24 12 65 l-26 29 33
-24 c18 -13 30 -29 28 -36 -3 -7 1 -13 9 -13 22 0 18 18 -10 46 -29 29 -31 34
-10 34 25 0 17 20 -12 31 -18 7 -36 6 -56 -1 -41 -14 -57 -13 -57 5 0 8 -6 15
-14 15 -8 0 -26 14 -40 31 -21 25 -24 34 -15 46 9 10 9 17 1 25 -9 9 -12 8
-12 -5 0 -15 -4 -16 -20 -7 -23 12 -28 53 -5 44 9 -4 16 3 20 20 3 14 7 38 10
52 3 14 2 23 -3 20 -6 -3 -15 1 -22 9 -23 28 -30 15 -10 -17 11 -18 20 -41 20
-50 0 -33 -18 -18 -36 30 -20 54 -34 74 -34 49 0 -9 -8 -17 -17 -17 -13 0 -9
-7 14 -26 26 -20 31 -30 27 -52 -4 -21 3 -40 31 -80 21 -31 35 -62 33 -75 -2
-18 -8 -13 -27 26 -21 43 -26 48 -50 42 -15 -3 -40 -1 -54 4 -17 7 -27 7 -27
1 0 -5 11 -12 24 -16 21 -5 24 -10 19 -40 -7 -44 18 -56 51 -25 l23 22 16 -25
c16 -23 15 -24 -8 -30 -14 -4 -39 -21 -57 -40 l-32 -33 -25 23 -25 23 22 30
c28 39 28 41 -8 41 -23 0 -30 4 -30 20 0 22 -10 26 -27 9 -7 -7 -12 -3 -17 15
-8 31 -26 34 -33 6 -6 -24 -19 -26 -27 -5 -8 22 -26 18 -26 -5 0 -11 -6 -20
-14 -20 -22 0 -25 23 -5 48 21 27 17 66 -12 122 -21 42 -65 90 -82 90 -7 0
-23 19 -36 43 -32 58 -123 120 -104 71 5 -14 3 -15 -15 -5 -11 6 -24 16 -27
21 -7 11 -45 11 -122 0z m205 -37 c22 -22 46 -53 41 -53 -7 0 -72 70 -65 70 4
0 15 -8 24 -17z m65 -113 c3 -11 3 -20 1 -20 -2 0 -8 9 -14 20 -6 11 -7 20 -2
20 6 0 12 -9 15 -20z m-89 -4 c-3 -8 -14 -16 -26 -19 -19 -5 -19 -5 -2 14 20
22 36 25 28 5z m171 -42 c19 -26 34 -56 34 -68 -1 -17 -2 -18 -6 -3 -7 27 -16
20 -35 -23 -9 -22 -22 -40 -28 -40 -7 0 -8 6 0 19 12 24 13 88 1 95 -5 3 -7
16 -3 28 4 17 2 20 -11 15 -17 -6 -23 4 -10 16 13 13 22 7 58 -39z m-315 16
c-8 -5 -22 -9 -30 -9 -10 0 -8 3 5 9 27 12 43 12 25 0z m-315 -32 c-10 -31
-25 -47 -25 -26 0 24 11 48 22 48 5 0 6 -10 3 -22z m526 -11 c-10 -9 -11 -8
-5 6 3 10 9 15 12 12 3 -3 0 -11 -7 -18z m-330 -40 c-10 -9 -11 -8 -5 6 3 10
9 15 12 12 3 -3 0 -11 -7 -18z m386 1 c-3 -8 -6 -5 -6 6 -1 11 2 17 5 13 3 -3
4 -12 1 -19z m72 -72 c-13 -13 -35 -27 -49 -31 -23 -6 -22 -5 5 13 17 10 36
26 44 36 8 9 16 14 19 11 3 -3 -5 -16 -19 -29z m96 -85 c-22 -44 -25 -38 -6
15 9 25 17 38 19 30 2 -8 -4 -28 -13 -45z m215 50 c0 -18 -43 -62 -52 -53 -14
14 12 62 34 62 10 0 18 -4 18 -9z m-327 -30 c-3 -12 -11 -17 -19 -14 -8 3 -22
2 -31 -2 -17 -6 -17 -7 0 -20 18 -13 17 -14 -3 -20 -27 -9 -29 -7 -18 32 8 30
18 36 65 42 6 0 9 -7 6 -18z m74 -13 c-3 -7 -5 -2 -5 12 0 14 2 19 5 13 2 -7
2 -19 0 -25z m-611 -30 c-14 -10 -15 -7 -8 27 6 30 6 30 12 5 4 -14 2 -28 -4
-32z m574 16 c6 -15 8 -42 4 -61 l-6 -34 -18 29 c-10 17 -23 33 -29 36 -6 4
-11 13 -11 19 0 7 12 0 25 -15 13 -16 27 -28 31 -28 6 0 0 32 -12 64 -3 9 -3
16 0 16 4 0 11 -12 16 -26z m130 17 c0 -11 -71 -81 -82 -81 -7 0 71 87 80 89
1 1 2 -3 2 -8z m250 -22 c0 -5 -7 -9 -15 -9 -15 0 -20 12 -9 23 8 8 24 -1 24
-14z m-513 -14 c-4 -8 -11 -15 -17 -15 -6 0 -6 7 2 20 14 22 24 19 15 -5z
m298 -1 c-11 -9 -29 -20 -40 -26 -17 -9 -16 -6 4 16 14 14 32 26 40 26 13 -1
12 -4 -4 -16z m222 -31 c-8 -8 -27 -13 -43 -11 l-29 4 35 16 c40 17 59 13 37
-9z m-1000 -5 c-3 -8 -6 -5 -6 6 -1 11 2 17 5 13 3 -3 4 -12 1 -19z m1063 2
c12 -23 3 -25 -22 -6 -22 16 -23 26 -3 26 8 0 19 -9 25 -20z m-532 -16 c12 -8
22 -21 22 -29 0 -8 5 -17 10 -20 7 -4 9 3 4 22 -6 26 -5 27 11 12 9 -9 19 -35
22 -58 7 -48 -15 -81 -54 -81 -22 0 -70 -37 -60 -46 2 -3 18 3 35 13 17 10 34
14 39 10 9 -9 -15 -26 -62 -43 -26 -10 -34 -8 -58 12 -30 25 -53 31 -59 14 -1
-5 -4 15 -5 46 -2 46 1 61 22 88 14 18 25 37 25 43 0 12 38 31 65 32 11 1 31
-6 43 -15z m182 1 c0 -8 -7 -15 -15 -15 -17 0 -21 -26 -5 -32 6 -2 6 -16 -1
-41 -13 -49 -6 -67 26 -67 21 0 25 4 21 18 -4 12 1 26 14 37 11 10 20 24 20
31 0 21 -20 27 -38 11 -16 -14 -17 -13 -17 9 0 16 5 22 15 19 8 -2 27 -7 43
-11 15 -3 27 -8 27 -10 0 -2 -11 -19 -24 -39 -14 -20 -23 -42 -20 -49 7 -17
-15 -33 -53 -38 -29 -4 -33 -2 -33 18 0 13 -4 26 -10 29 -6 4 -4 18 6 37 11
20 12 34 6 40 -13 13 -5 39 16 56 20 15 22 15 22 -3z m390 -5 c0 -5 -4 -10
-10 -10 -5 0 -10 5 -10 10 0 6 5 10 10 10 6 0 10 -4 10 -10z m-1200 -10 c0 -5
-5 -10 -11 -10 -5 0 -7 5 -4 10 3 6 8 10 11 10 2 0 4 -4 4 -10z m741 -51 c-8
-55 -30 -64 -27 -12 1 21 5 44 10 51 14 23 23 3 17 -39z m362 19 c9 -5 17 -13
17 -17 0 -13 -57 -6 -75 9 -23 19 -30 4 -11 -25 9 -14 13 -25 9 -25 -5 0 -14
9 -21 21 -11 17 -20 20 -45 15 -29 -6 -30 -5 -12 8 11 9 28 16 38 16 9 0 17 4
17 10 0 10 54 3 83 -12z m-192 -36 c-5 -10 -18 -25 -27 -33 -11 -9 -9 -2 6 19
26 35 36 42 21 14z m-61 -1 c0 -12 -51 -53 -58 -46 -6 6 38 55 50 55 4 0 8 -4
8 -9z m259 -34 c0 -21 -1 -21 -9 -2 -12 28 -12 37 0 30 6 -3 10 -16 9 -28z
m-361 -40 c4 -32 -31 -56 -54 -36 -20 17 -17 35 8 53 29 21 42 16 46 -17z
m272 -46 c0 -18 -45 -59 -70 -65 -33 -7 -55 7 -46 30 5 13 9 15 18 6 20 -20
56 -13 75 13 20 27 23 29 23 16z m182 -18 c9 -12 9 -16 -3 -23 -9 -7 -15 -5
-17 5 -7 31 -21 14 -19 -22 2 -29 -2 -38 -16 -41 -17 -3 -18 1 -13 30 l7 33
-23 -27 c-24 -28 -48 -37 -48 -18 0 5 19 27 42 48 43 40 66 44 90 15z m-528
-5 c-16 -54 -24 -68 -39 -68 -21 0 -19 16 6 56 24 39 44 45 33 12z m369 -6
c-3 -12 -12 -22 -20 -22 -14 0 -11 10 10 38 13 17 17 11 10 -16z m-333 3 c0
-8 6 -24 12 -35 10 -15 10 -22 0 -32 -21 -21 -44 11 -36 50 7 32 24 45 24 17z
m342 -59 c4 -6 8 -15 8 -21 -1 -5 -5 -2 -11 8 -5 9 -21 17 -35 17 -15 0 -23 4
-19 10 8 12 46 3 57 -14z m-161 -29 c-22 -24 -20 -53 3 -69 6 -4 7 -10 3 -15
-12 -11 -42 11 -45 34 -3 21 33 73 50 73 7 0 2 -11 -11 -23z m-120 -53 c-26
-40 -31 -44 -31 -24 0 22 48 85 58 75 2 -2 -10 -25 -27 -51z m394 26 c3 -5 2
-10 -4 -10 -5 0 -13 5 -16 10 -3 6 -2 10 4 10 5 0 13 -4 16 -10z m-492 -47
c-7 -3 -13 -11 -13 -19 0 -8 -4 -14 -10 -14 -11 0 -14 53 -3 64 4 3 14 -1 22
-10 12 -12 13 -18 4 -21z m52 -3 c6 -9 -42 -46 -50 -38 -6 5 27 48 37 48 4 0
9 -4 13 -10z m400 -21 c18 0 18 -1 -3 -10 -28 -11 -42 -4 -42 19 0 12 3 13 12
4 7 -7 21 -12 33 -13z m-243 -8 c4 -3 -4 -7 -17 -7 -13 -1 -26 5 -29 13 -5 11
-1 13 17 8 12 -4 25 -10 29 -14z m-232 -35 c0 -8 6 -16 13 -19 6 -2 9 -8 5
-12 -4 -4 -14 -2 -23 5 -17 14 -20 40 -5 40 6 0 10 -6 10 -14z"/>
<path d="M3214 4815 c-4 -9 -2 -27 4 -41 10 -21 9 -24 -11 -25 -17 -1 -16 -3
8 -9 61 -15 69 -12 36 16 -17 14 -31 30 -31 35 0 18 29 8 49 -18 12 -14 24
-23 28 -19 7 7 -33 53 -60 67 -13 7 -19 6 -23 -6z"/>
<path d="M3737 5198 c4 -18 7 -52 8 -75 0 -43 8 -55 18 -29 8 19 18 114 11 99
-9 -20 -24 -15 -24 6 0 11 -4 23 -10 26 -6 4 -7 -6 -3 -27z"/>
<path d="M3710 5173 c0 -24 -4 -43 -10 -43 -5 0 -10 6 -10 14 0 8 -4 18 -10
21 -6 4 -10 -10 -10 -36 0 -41 0 -42 20 -24 19 17 20 17 20 0 0 -10 -8 -24
-17 -31 -17 -12 -17 -13 3 -14 23 0 67 -29 46 -30 -7 0 -22 5 -33 10 -13 7
-19 7 -19 0 0 -5 4 -10 9 -10 4 0 20 -11 36 -26 31 -28 30 -29 39 8 5 22 1 31
-18 43 -20 13 -24 24 -25 71 -1 69 -20 111 -21 47z"/>
<path d="M3500 5173 c0 -3 8 -15 17 -25 16 -18 16 -18 0 -12 -9 3 -24 3 -33 0
-14 -5 -12 -11 10 -41 24 -31 25 -35 9 -36 -10 -1 -2 -5 17 -9 19 -5 37 -7 39
-4 2 2 -13 19 -35 38 -47 41 -41 55 11 25 42 -25 42 -22 5 33 -23 35 -40 48
-40 31z"/>
<path d="M3790 5126 c0 -13 -3 -32 -6 -40 -5 -12 -2 -15 10 -10 18 7 51 62 43
71 -3 2 -8 -5 -12 -16 -3 -12 -11 -21 -17 -21 -5 0 -8 7 -5 15 4 8 2 17 -3 20
-6 4 -10 -5 -10 -19z"/>
<path d="M2952 5103 c-26 -10 -2 -18 48 -14 35 2 48 6 39 12 -15 9 -66 11 -87
2z"/>
<path d="M3826 5085 c-20 -30 -20 -39 -2 -32 8 3 17 1 19 -6 2 -7 8 -9 12 -5
4 4 4 15 0 25 -5 10 -7 24 -6 31 3 19 -5 14 -23 -13z"/>
<path d="M2980 5020 c0 -14 7 -20 23 -20 30 0 40 10 26 27 -18 20 -49 16 -49
-7z"/>
<path d="M3808 5033 c-9 -2 -19 -10 -22 -18 -4 -11 1 -12 25 -3 16 5 29 14 29
19 0 9 -4 10 -32 2z"/>
<path d="M3691 4993 c13 -16 25 -30 27 -32 1 -3 7 0 13 6 7 7 2 17 -19 32 -41
29 -50 26 -21 -6z"/>
<path d="M2980 4879 c0 -11 7 -19 18 -19 9 0 24 -5 32 -11 12 -8 10 -9 -7 -4
-20 5 -23 3 -23 -19 0 -33 18 -33 64 -2 35 23 37 36 6 36 -8 0 -32 9 -53 19
-36 18 -37 18 -37 0z"/>
<path d="M2480 4811 c-21 -14 -16 -75 10 -101 l21 -21 -20 -35 c-30 -50 -26
-53 10 -8 52 66 65 76 79 59 7 -8 21 -15 31 -15 20 0 39 -28 39 -58 0 -17 5
-15 35 12 32 29 48 55 26 42 -4 -3 -8 9 -7 27 1 46 -17 49 -25 4 -8 -52 -19
-58 -19 -11 0 40 -13 73 -23 57 -3 -5 -2 -15 4 -23 5 -8 9 -22 9 -30 0 -22
-38 39 -46 72 -3 16 -10 28 -15 28 -16 0 -10 -31 12 -67 26 -42 16 -58 -15
-22 -12 14 -32 28 -44 31 -18 5 -22 2 -22 -18 0 -13 -4 -24 -10 -24 -12 0 -13
47 -1 54 5 3 11 16 14 28 5 20 3 19 -19 -7 l-24 -30 9 33 c5 17 9 32 8 32 -1
0 -9 -4 -17 -9z m70 -75 c0 -3 -4 -8 -10 -11 -5 -3 -10 -1 -10 4 0 6 5 11 10
11 6 0 10 -2 10 -4z"/>
<path d="M2780 4787 c0 -3 21 -25 46 -50 43 -44 52 -66 27 -74 -6 -2 -27 10
-47 28 -20 17 -39 29 -42 27 -10 -11 69 -69 90 -66 11 1 27 -1 34 -6 9 -5 18
-1 27 10 19 25 19 44 0 44 -8 0 -15 -4 -15 -10 0 -5 -4 -10 -10 -10 -5 0 -10
7 -10 16 0 8 -15 29 -32 45 -32 30 -68 54 -68 46z"/>
<path d="M3812 4740 c14 -22 24 -19 15 5 -4 8 -11 15 -17 15 -6 0 -6 -7 2 -20z"/>
<path d="M3015 4688 c-6 -17 -17 -34 -25 -36 -12 -4 -13 -2 -2 9 6 7 12 18 12
24 0 5 -5 3 -11 -5 -8 -11 -12 -12 -16 -2 -5 13 -23 7 -23 -9 0 -6 4 -8 9 -5
12 8 22 -19 12 -30 -5 -5 2 -24 15 -43 13 -19 24 -27 24 -19 0 8 -6 23 -14 33
-12 16 -10 21 15 43 17 14 29 34 29 48 0 34 -14 30 -25 -8z"/>
<path d="M5337 4543 c-13 -13 -7 -20 18 -20 28 0 33 12 9 21 -19 7 -19 7 -27
-1z"/>
<path d="M5715 4541 c-3 -5 3 -12 12 -14 15 -4 14 -5 -3 -6 -53 -3 -72 -75
-28 -110 14 -11 25 -22 25 -25 -2 -13 11 -5 34 23 26 30 33 75 14 86 -5 4 -14
18 -19 31 -10 25 -24 31 -35 15z m45 -81 c0 -25 -30 -41 -53 -29 -21 12 -22
33 -1 53 19 20 54 5 54 -24z"/>
<path d="M2404 4515 c-9 -13 -14 -29 -12 -34 1 -5 11 6 20 25 20 40 16 45 -8
9z"/>
<path d="M4464 4521 c-17 -10 -40 -31 -51 -45 -12 -14 -26 -26 -31 -26 -6 0
-14 -9 -17 -20 -9 -28 -25 -25 -26 5 -1 14 -2 31 -3 38 -1 6 -11 20 -24 30
-19 16 -25 17 -40 6 -9 -7 -19 -14 -21 -16 -2 -1 7 -16 19 -32 24 -34 23 -35
-14 -21 -16 6 -29 22 -36 42 l-10 33 4 -35 4 -35 -60 -2 c-66 -3 -164 -41
-195 -76 -17 -20 -17 -20 2 -13 24 10 43 14 33 9 -14 -8 -8 -33 7 -33 8 0 15
-7 15 -16 0 -10 -6 -13 -19 -9 -12 3 -30 -3 -49 -20 -27 -23 -30 -23 -25 -5 3
12 0 20 -7 20 -9 0 -9 4 1 17 12 14 10 14 -14 -2 -36 -23 -47 -45 -47 -94 0
-42 38 -101 66 -101 8 0 14 -4 14 -10 0 -5 -24 -10 -54 -10 -29 0 -70 -7 -89
-15 -20 -8 -38 -15 -41 -15 -11 0 -17 63 -7 69 7 5 1 19 -19 41 -16 18 -30 28
-30 21 0 -9 -3 -9 -14 1 -8 7 -11 17 -8 22 3 5 0 6 -6 2 -16 -10 -15 -31 3
-46 8 -7 15 -20 15 -29 -1 -11 -10 -5 -30 18 l-29 34 -10 -24 c-9 -23 -10 -23
-10 -2 -1 13 8 27 19 33 14 8 20 21 20 45 0 19 -4 35 -10 35 -5 0 -10 -13 -10
-30 0 -21 -5 -30 -16 -30 -13 0 -15 7 -10 30 7 36 -11 40 -24 6 -9 -25 -28
-42 -36 -33 -3 3 -1 14 5 25 16 29 2 34 -30 10 -35 -26 -48 -18 -25 16 22 34
21 36 -16 29 -22 -4 -29 -3 -24 5 4 7 18 12 30 12 35 0 50 23 28 42 -32 28
-53 29 -72 6 -14 -18 -16 -26 -7 -37 9 -11 8 -16 -8 -25 -44 -25 -85 -74 -85
-102 l0 -29 25 30 24 30 1 -47 c0 -26 -5 -50 -10 -53 -12 -8 -43 -65 -38 -71
2 -2 24 24 48 57 l44 60 18 -23 c10 -13 18 -18 19 -13 1 6 2 15 4 20 1 6 3 19
3 31 1 11 13 26 27 32 19 9 23 8 19 -2 -3 -8 4 -16 15 -19 23 -6 28 -46 12
-89 -9 -23 -111 -86 -111 -69 0 7 59 58 86 74 8 4 14 12 14 18 0 15 -39 -9
-90 -57 -40 -38 -53 -44 -89 -44 -50 0 -81 14 -81 38 0 9 -12 -3 -26 -28 -14
-25 -28 -47 -31 -50 -8 -7 7 41 23 74 16 34 11 48 -6 16 -9 -17 -39 -106 -40
-117 0 -2 6 -3 14 -3 8 0 23 15 34 33 l19 34 89 -5 c52 -3 97 -10 109 -18 11
-8 27 -14 36 -14 26 0 42 -26 34 -57 -8 -34 -86 -113 -111 -113 -18 1 -18 1
-1 14 29 22 19 25 -35 9 -42 -13 -58 -13 -86 -3 -46 17 -54 4 -8 -15 23 -10
51 -14 74 -10 31 5 34 4 19 -5 -10 -7 -34 -10 -53 -8 -26 3 -33 1 -29 -9 2 -8
0 -36 -6 -64 -8 -37 -8 -54 0 -62 8 -8 11 0 11 28 0 58 10 85 30 85 10 0 31 7
46 15 16 8 36 15 45 15 14 0 13 -7 -7 -47 -18 -35 -24 -63 -24 -115 l0 -69
-40 22 c-77 43 -110 77 -108 112 2 66 -2 97 -13 97 -7 0 -10 -18 -7 -50 1 -28
0 -50 -3 -50 -13 0 -28 27 -20 36 5 5 12 31 16 57 6 44 5 48 -12 45 -14 -2
-19 -15 -23 -56 l-5 -52 -50 38 c-27 21 -51 47 -53 57 -3 27 34 86 58 92 11 3
17 9 14 14 -3 5 1 9 9 9 8 0 17 14 20 33 3 17 8 40 12 50 4 9 3 17 -3 17 -6 0
-13 -18 -17 -40 -4 -25 -12 -40 -21 -40 -12 0 -12 6 2 38 10 23 17 75 19 142
2 58 1 92 -1 77 -7 -35 -26 -30 -36 9 -4 17 -17 39 -28 49 -23 21 -27 50 -5
42 8 -4 17 -2 20 3 4 6 -4 10 -16 10 -19 0 -20 2 -8 16 12 14 11 16 -6 13 -33
-7 -31 -52 4 -92 17 -19 31 -43 31 -54 0 -10 9 -26 20 -36 13 -10 20 -29 20
-50 0 -42 -25 -128 -41 -137 -8 -6 -8 -13 0 -28 6 -11 7 -22 3 -24 -5 -2 -23
-25 -41 -52 -30 -44 -35 -47 -44 -30 -6 11 -17 25 -25 33 -8 9 -11 24 -7 40 3
15 2 21 -3 14 -9 -15 -62 60 -62 89 0 28 7 22 31 -27 12 -25 24 -43 26 -41 3
2 -5 22 -16 45 -27 51 -26 66 1 85 12 9 17 16 9 16 -7 0 -26 -14 -42 -31 -16
-18 -31 -30 -33 -28 -33 45 -89 144 -97 174 -6 22 -14 45 -19 50 -4 6 -11 26
-15 45 -9 43 -62 140 -77 140 -6 0 -4 -8 5 -17 22 -25 64 -121 72 -166 4 -20
11 -40 16 -42 4 -3 6 -12 2 -21 -3 -8 7 -31 23 -52 16 -20 51 -71 78 -112 27
-41 57 -87 67 -102 11 -15 19 -31 19 -36 0 -5 10 -21 21 -36 12 -15 19 -29 16
-32 -6 -6 40 -48 169 -154 79 -64 183 -133 230 -150 l24 -10 -29 -47 c-34 -55
-52 -111 -31 -98 8 5 11 3 8 -6 -10 -30 -62 -21 -124 19 -32 22 -77 45 -99 52
-94 30 -178 92 -332 250 -84 85 -153 158 -153 162 0 3 -6 13 -13 20 -22 22
-103 161 -118 201 -7 20 -17 37 -21 37 -11 0 -10 -2 8 -38 8 -18 12 -37 9 -43
-4 -6 6 -25 23 -42 16 -18 45 -57 65 -89 19 -31 66 -88 103 -128 l68 -71 0
-117 c1 -64 2 -107 4 -94 5 34 27 26 39 -15 6 -21 27 -76 48 -123 51 -118 52
-120 26 -120 -47 0 -100 -47 -101 -88 0 -25 44 -72 68 -72 11 0 13 -8 8 -32
-8 -40 -7 -40 -44 -26 -44 17 -65 2 -76 -53 -8 -40 -5 -51 27 -114 19 -39 51
-85 71 -104 l35 -34 -56 -23 c-31 -13 -60 -21 -63 -19 -4 3 -13 26 -19 52 -18
71 -74 147 -143 193 -33 22 -70 40 -83 40 -31 0 -49 -47 -42 -110 12 -97 74
-175 161 -201 46 -13 55 -22 36 -34 -5 -3 -10 -16 -10 -27 0 -11 -9 -35 -19
-52 -38 -61 -43 -113 -19 -187 l21 -67 -23 -46 c-19 -40 -23 -65 -24 -157 l-1
-109 -25 0 c-42 0 -51 14 -60 91 -9 80 -55 344 -64 369 -12 33 -45 403 -47
525 -3 198 -17 396 -39 535 -11 69 -21 149 -22 177 -2 29 -6 53 -9 53 -10 0
-105 -150 -139 -220 -17 -36 -37 -76 -44 -90 -21 -40 -54 -150 -65 -215 -19
-119 -33 -261 -29 -305 2 -27 8 14 16 105 24 266 86 451 220 649 l27 39 7 -34
c7 -33 29 -195 48 -354 6 -44 10 -139 10 -211 0 -270 29 -552 81 -801 10 -50
22 -125 25 -166 11 -135 13 -140 66 -156 40 -12 49 -20 63 -54 15 -37 15 -43
-6 -105 -18 -54 -20 -71 -11 -96 9 -24 8 -42 -3 -80 -8 -27 -15 -61 -15 -76 0
-14 -5 -31 -10 -36 -7 -7 -6 -20 5 -40 8 -16 15 -37 15 -46 0 -10 5 -18 11
-18 7 0 8 11 2 33 -14 59 4 228 25 227 4 -1 30 -11 57 -24 56 -27 81 -20 70
21 -6 24 1 28 22 15 15 -10 46 -177 41 -223 l-3 -31 -25 22 c-25 21 -25 21 -2
17 27 -6 30 13 2 20 -23 6 -26 19 -7 26 6 2 9 8 5 12 -4 4 -20 -1 -35 -11 -57
-38 -99 -55 -123 -50 -24 4 -24 4 -5 -10 48 -32 46 -28 49 -126 1 -20 5 -40 9
-44 10 -11 9 124 -2 145 -8 14 -3 21 24 35 l34 19 36 -39 c29 -31 35 -43 30
-66 -8 -35 -12 -35 -46 -2 -42 40 -57 27 -61 -51 -2 -54 0 -65 12 -63 10 2 16
19 18 53 2 27 5 51 7 53 2 2 15 -4 28 -15 17 -12 27 -32 31 -58 3 -22 17 -69
31 -104 14 -36 25 -79 25 -97 0 -17 7 -50 15 -73 16 -46 19 -36 -47 -159 -16
-28 -28 -67 -28 -86 0 -29 4 -36 31 -45 51 -18 135 -13 179 9 40 20 42 25 42
90 0 3 -3 33 -6 68 l-7 62 47 20 47 20 -6 50 c-7 59 6 73 28 30 8 -16 12 -30
9 -30 -4 0 1 -9 11 -20 17 -19 18 -27 7 -88 -11 -66 -11 -67 16 -95 50 -52
126 -87 190 -87 53 0 61 3 89 33 37 38 32 65 -16 93 -28 17 -35 27 -32 46 2
13 -40 30 -57 23 -9 -3 -13 -3 -10 1 4 4 3 14 -2 23 -7 13 2 26 39 58 l47 41
-2 103 c-5 285 -31 487 -80 632 -23 67 -32 146 -18 160 4 3 24 -3 45 -14 23
-11 48 -17 62 -14 15 4 28 1 36 -9 20 -23 41 -19 41 7 0 27 48 77 73 77 19 0
23 15 7 25 -5 3 -10 17 -10 29 0 13 -17 43 -38 67 -20 24 -46 61 -57 81 -17
32 -35 50 -35 33 0 -17 50 -95 77 -121 18 -17 33 -38 33 -45 0 -8 -21 -33 -45
-57 -48 -46 -59 -70 -24 -52 19 11 20 10 9 -9 -14 -27 -26 -27 -41 1 -8 14
-14 18 -17 10 -5 -16 -68 -16 -78 0 -15 25 -12 62 7 86 23 30 24 46 4 103 -16
43 -15 44 7 62 55 42 62 47 68 47 3 0 6 16 6 36 -1 31 3 38 22 40 22 4 30 -10
12 -21 -5 -3 -10 -19 -10 -36 0 -16 5 -29 10 -29 6 0 10 4 10 9 0 5 7 11 15
15 13 4 14 -1 9 -34 -7 -42 3 -51 28 -27 7 8 18 12 25 10 6 -2 17 6 24 19 l12
22 8 -22 c13 -34 29 -26 29 16 l0 37 45 -48 c47 -50 58 -75 28 -59 -25 13 -99
14 -87 2 5 -5 21 -11 34 -12 14 -2 28 -11 32 -20 8 -20 68 -26 68 -7 0 6 -8 8
-19 4 -11 -3 -22 -2 -25 3 -8 13 36 24 48 12 5 -5 10 -19 11 -30 1 -15 -4 -20
-22 -20 -14 0 -21 -4 -18 -10 3 -5 15 -10 26 -10 11 0 18 -4 14 -9 -8 -15 15
-25 28 -12 6 6 16 11 21 11 6 0 6 -4 -1 -11 -8 -8 -7 -18 3 -37 8 -15 14 -34
14 -42 0 -9 7 -26 16 -38 15 -21 14 -31 -11 -129 -34 -135 -59 -347 -46 -384
6 -17 6 -41 0 -66 -5 -21 -21 -96 -34 -167 -27 -145 -30 -137 47 -173 22 -11
38 -25 38 -35 0 -22 16 -23 27 -4 7 12 15 12 62 0 30 -7 56 -16 58 -18 8 -7
-14 -39 -45 -69 l-30 -29 -16 34 c-9 19 -29 42 -46 51 -28 17 -30 17 -84 -10
-31 -15 -56 -31 -56 -35 0 -4 13 -14 28 -22 16 -8 34 -22 41 -30 11 -13 10
-17 -10 -25 -28 -10 -61 0 -67 20 -4 11 -2 12 9 1 18 -17 39 -15 39 3 0 8 -7
15 -16 15 -8 0 -22 7 -30 15 -9 8 -23 15 -31 15 -9 0 -14 -3 -10 -6 3 -3 -8
-18 -24 -32 -29 -24 -30 -26 -12 -43 29 -29 136 -42 203 -24 30 8 69 15 86 15
36 0 134 28 134 38 -1 19 -20 34 -35 28 -13 -5 -16 -2 -11 10 3 8 6 18 6 20 0
3 4 3 9 0 5 -3 11 6 14 19 2 14 -1 29 -7 32 -6 4 -1 10 14 13 34 8 43 54 35
185 -9 149 -9 162 4 224 12 64 19 72 34 46 24 -41 37 -125 44 -283 6 -160 7
-164 30 -173 41 -15 35 -24 -85 -124 -42 -35 -59 -55 -56 -67 4 -12 0 -18 -11
-18 -19 0 -16 -20 6 -31 8 -4 56 -14 108 -21 l93 -14 37 27 c20 14 51 43 70
63 31 32 33 38 22 59 -7 13 -11 27 -10 33 2 5 -2 19 -9 30 -15 28 -7 34 44 34
26 0 57 8 78 21 33 19 36 24 31 57 -21 159 -30 206 -51 272 -13 41 -24 93 -24
115 -1 22 -7 57 -15 79 -7 21 -12 43 -10 50 2 6 6 23 9 38 4 18 23 39 59 62
93 62 92 60 77 177 -12 92 -16 102 -38 110 -14 5 -33 7 -43 4 -11 -4 -19 -2
-19 5 0 6 -5 8 -10 5 -6 -4 -8 -15 -5 -26 4 -12 -3 -34 -17 -57 l-23 -37 -3
32 c-2 24 -8 31 -23 30 -10 -1 -19 -8 -19 -17 0 -16 -38 -45 -47 -36 -9 9 57
95 95 123 20 15 40 32 45 38 4 6 17 -1 32 -18 23 -26 29 -28 73 -21 26 4 59
15 74 25 50 36 58 24 58 -96 0 -88 17 -185 33 -185 5 0 6 8 2 18 -4 9 -10 71
-12 137 -3 66 -10 128 -15 139 -8 14 -4 24 17 46 l27 28 38 -37 c58 -56 58
-74 -6 -241 -14 -36 -29 -74 -34 -85 -36 -87 -96 -336 -85 -355 3 -6 8 -76 9
-158 4 -159 11 -212 31 -212 8 0 26 -7 42 -14 15 -8 37 -18 47 -21 18 -5 18
-6 -2 -26 -12 -11 -22 -24 -22 -29 0 -5 -22 -21 -48 -34 -58 -29 -90 -70 -72
-91 16 -20 75 -35 132 -35 39 0 57 7 97 35 26 19 55 35 62 35 8 0 25 9 38 19
24 18 25 24 28 153 2 73 8 147 13 163 7 22 9 -5 5 -97 -4 -124 -4 -128 18
-142 12 -8 41 -18 65 -22 l42 -7 -25 -23 c-13 -12 -32 -40 -40 -62 -10 -23
-38 -58 -70 -86 -30 -26 -55 -50 -55 -54 0 -4 14 -16 31 -26 54 -32 176 -13
279 43 17 9 33 169 19 186 -18 19 -9 35 20 35 26 0 30 4 35 38 14 83 10 246
-8 292 -23 63 -28 154 -11 230 7 36 19 99 25 140 6 41 15 100 20 131 6 30 10
64 10 74 0 10 10 32 23 49 12 17 35 56 51 86 16 30 44 72 62 92 70 78 77 119
44 248 -15 59 -18 85 -10 105 23 59 13 120 -47 292 -23 65 -64 100 -126 108
-29 4 -56 9 -60 12 -4 3 10 23 32 45 30 31 40 51 45 87 8 63 -17 197 -54 286
-4 11 -14 36 -21 54 -7 19 -25 49 -40 65 -14 17 -29 41 -33 53 -4 12 -16 25
-27 28 -13 5 -19 15 -19 38 0 18 -8 43 -17 57 -16 22 -16 24 2 34 36 22 64 51
66 71 3 38 -1 45 -26 45 -14 0 -26 -6 -26 -12 -1 -7 -3 -24 -4 -38 -1 -14 2
-28 9 -32 6 -4 -4 -8 -22 -8 -28 0 -32 -3 -27 -19 3 -11 1 -22 -6 -26 -6 -4
-17 -22 -25 -40 -13 -33 -31 -43 -105 -59 -15 -3 -41 -19 -59 -36 -18 -17 -35
-29 -37 -26 -3 3 -2 22 2 44 4 28 13 43 31 50 13 7 24 16 24 21 0 5 20 13 45
17 25 3 45 11 45 16 0 7 -17 8 -45 5 -61 -9 -86 3 -115 56 -23 44 -23 49 -11
99 22 83 42 119 63 112 10 -3 18 -1 18 4 0 5 -9 12 -20 15 -23 6 -17 37 6 37
8 0 14 5 14 10 0 14 -13 13 -28 -2 -6 -6 -15 -9 -19 -5 -13 14 15 29 63 35 34
3 45 2 40 -6 -5 -9 5 -10 36 -6 39 5 47 3 77 -25 18 -17 47 -33 66 -37 24 -4
38 -15 51 -39 17 -32 17 -34 0 -60 -10 -15 -15 -29 -12 -32 3 -3 15 10 26 28
21 32 23 20 4 -26 -7 -18 -6 -19 11 -5 17 14 18 13 13 -7 -4 -16 -2 -23 8 -23
19 0 18 -7 -5 -39 -11 -14 -40 -37 -65 -49 -54 -27 -59 -36 -13 -20 81 28 142
111 151 206 8 83 -1 137 -20 121 -10 -8 -14 -8 -14 0 0 6 -4 11 -9 11 -5 0
-24 14 -42 31 -54 50 -87 63 -164 62 -79 0 -176 -25 -196 -50 -13 -15 -12 -15
6 -6 11 6 41 15 66 21 26 7 54 14 63 18 9 3 16 2 16 -3 0 -9 -148 -58 -166
-55 -6 1 -16 -9 -22 -23 -7 -15 -8 -25 -2 -25 12 0 13 -97 1 -104 -4 -3 -16
21 -26 54 -10 34 -34 78 -56 105 -22 26 -39 51 -39 55 0 4 -11 11 -25 14 -19
5 -32 0 -53 -19 -15 -14 -49 -32 -75 -41 -41 -14 -53 -14 -73 -3 -26 13 -32
29 -11 29 26 0 108 60 117 86 10 25 12 26 29 10 19 -18 36 -22 26 -6 -3 5 10
26 29 45 20 19 32 27 29 18 -6 -16 -5 -16 10 -4 26 21 40 81 33 147 -3 32 -6
74 -6 92 0 25 -5 35 -24 42 -13 5 -27 18 -31 29 -3 10 -12 25 -21 32 -12 10
-13 9 -8 -5 9 -23 0 -20 -38 14 -33 31 -32 38 3 20 23 -13 25 -7 4 14 -23 23
-89 38 -117 27 -39 -15 -145 -25 -133 -13 6 5 19 12 30 15 14 3 11 5 -10 6
-16 0 -44 -8 -61 -18z m-156 -33 c7 -7 12 -23 12 -37 l-1 -26 -24 28 c-31 35
-19 67 13 35z m151 -14 l-24 -27 23 6 c27 6 30 -9 2 -18 -11 -3 -20 -11 -20
-16 0 -5 -9 -4 -20 3 -19 12 -19 14 12 45 38 39 62 45 27 7z m52 -54 c-30 -17
-63 -38 -73 -47 -10 -9 -21 -14 -23 -11 -8 8 54 58 90 74 56 25 60 14 6 -16z
m97 8 c5 -7 12 -26 14 -43 3 -16 9 -38 13 -49 7 -15 5 -17 -13 -12 -11 4 -23
3 -26 -2 -6 -10 55 -24 64 -15 2 2 -4 25 -13 50 -19 51 -8 83 12 35 16 -37 66
-86 80 -78 6 4 13 -4 17 -19 4 -16 13 -25 25 -25 10 0 19 -5 19 -11 0 -26 -34
-79 -53 -85 -12 -3 -30 -16 -39 -28 l-17 -21 5 25 6 25 -19 -23 c-22 -27 -110
-62 -156 -62 -24 0 -42 9 -65 33 l-32 33 3 95 c1 52 6 100 11 107 4 7 34 26
66 41 46 23 60 26 64 15 3 -8 10 -14 16 -14 8 0 8 6 0 20 -12 22 2 28 18 8z
m-331 -23 c8 -23 0 -25 -21 -4 -18 17 -18 19 -2 19 9 0 19 -7 23 -15z m51 -7
c-6 -18 -28 -21 -28 -4 0 9 7 16 16 16 9 0 14 -5 12 -12z m67 2 c-3 -5 -11
-10 -16 -10 -6 0 -7 5 -4 10 3 6 11 10 16 10 6 0 7 -4 4 -10z m-19 -30 c8 0
14 -5 14 -11 0 -6 -9 -9 -20 -6 -11 3 -23 1 -26 -4 -3 -5 -10 -7 -15 -3 -6 4
-3 14 8 26 10 11 19 15 21 9 2 -6 10 -11 18 -11z m364 -44 c0 -5 -11 1 -25 14
-14 13 -25 31 -25 39 1 11 9 6 25 -14 14 -16 25 -34 25 -39z m101 31 c-8 -8
-11 -7 -11 4 0 20 13 34 18 19 3 -7 -1 -17 -7 -23z m-1336 3 c15 -7 10 -9 -23
-9 -26 -1 -41 3 -37 9 7 12 32 12 60 0z m1278 -24 c18 -14 24 -46 8 -46 -8 0
-41 43 -41 55 0 9 14 5 33 -9z m-552 -26 c9 -6 6 -12 -14 -21 -22 -10 -30 -9
-52 5 -27 18 -35 7 -10 -14 10 -9 32 -11 66 -7 30 4 47 2 44 -3 -4 -6 -15 -10
-26 -10 -10 0 -19 -4 -19 -10 0 -5 10 -10 23 -10 18 0 19 -2 7 -10 -13 -8 -12
-10 3 -10 14 0 17 5 12 20 -4 14 -2 20 8 20 18 0 33 -138 17 -154 -6 -6 -6
-14 2 -23 13 -16 -16 -53 -41 -53 -12 1 -10 6 8 21 13 11 21 22 18 26 -4 3
-23 -9 -43 -26 -47 -42 -73 -51 -145 -51 -51 0 -64 4 -85 25 -40 40 -57 89
-45 133 9 29 8 38 -4 45 -21 11 -19 34 6 68 23 33 39 37 39 12 1 -14 7 -11 28
13 24 27 30 30 59 21 22 -7 44 -5 75 5 24 7 46 10 49 5 4 -5 13 -13 20 -17z
m181 8 c-9 -9 -15 -9 -24 0 -9 9 -7 12 12 12 19 0 21 -3 12 -12z m-932 -27 c0
-5 -7 -11 -15 -15 -9 -3 -15 0 -15 9 0 8 7 15 15 15 8 0 15 -4 15 -9z m940
-17 c0 -8 -4 -14 -10 -14 -5 0 -10 9 -10 21 0 11 5 17 10 14 6 -3 10 -13 10
-21z m-1000 -55 c-11 -38 -26 -55 -17 -19 4 14 7 31 7 38 0 6 4 12 9 12 6 0 6
-12 1 -31z m951 -6 c-12 -20 -14 -14 -5 12 4 9 9 14 11 11 3 -2 0 -13 -6 -23z
m-781 -4 c0 -6 -4 -7 -10 -4 -5 3 -10 11 -10 16 0 6 5 7 10 4 6 -3 10 -11 10
-16z m-120 -10 c0 -6 -4 -7 -10 -4 -5 3 -10 11 -10 16 0 6 5 7 10 4 6 -3 10
-11 10 -16z m940 -19 c0 -19 -17 -36 -26 -27 -3 2 -2 16 2 31 7 28 24 26 24
-4z m-690 -45 c0 -5 -5 -3 -10 5 -5 8 -10 20 -10 25 0 6 5 3 10 -5 5 -8 10
-19 10 -25z m1063 20 c-3 -9 -8 -14 -10 -11 -3 3 -2 9 2 15 9 16 15 13 8 -4z
m-1143 -35 c0 -16 5 -30 10 -30 6 0 10 4 10 9 0 5 6 11 13 14 8 3 12 -6 13
-25 1 -25 -6 -33 -63 -64 -59 -34 -65 -35 -82 -20 -9 9 -32 21 -51 27 l-33 12
56 28 c31 16 58 38 62 49 7 21 28 18 23 -4 -2 -6 2 -13 7 -14 6 -1 11 9 13 23
5 35 22 31 22 -5z m1170 23 c0 -14 -19 -38 -25 -32 -8 8 5 39 16 39 5 0 9 -3
9 -7z m-1080 -64 c0 -10 -7 -19 -15 -19 -15 0 -21 31 -9 43 11 10 24 -3 24
-24z m730 22 c0 -5 -7 -11 -14 -14 -10 -4 -13 -1 -9 9 6 15 23 19 23 5z m200
-21 c0 -11 5 -20 10 -20 6 0 10 7 10 16 0 8 5 12 10 9 37 -23 -31 -85 -102
-92 -69 -6 -123 37 -88 71 10 8 12 6 7 -11 -6 -28 9 -30 23 -3 6 11 32 26 58
34 64 20 72 19 72 -4z m-740 -5 c0 -8 -7 -15 -15 -15 -26 0 -18 20 13 29 1 1
2 -6 2 -14z m420 13 c0 -2 -6 -23 -14 -48 -10 -36 -18 -45 -37 -47 l-24 -3 23
10 c13 5 22 15 21 22 -3 20 12 68 22 68 5 0 9 -1 9 -2z m134 -34 c-5 -18 0
-32 17 -52 l24 -26 -27 17 c-15 9 -36 17 -47 17 -32 0 -34 18 -5 45 34 32 46
32 38 -1z m-502 -14 c10 -17 34 -38 55 -47 21 -9 32 -18 26 -20 -7 -3 -13 -9
-13 -14 0 -5 16 -1 35 8 35 17 53 14 40 -7 -6 -9 -10 -9 -16 1 -7 11 -9 11 -9
-2 0 -9 -7 -20 -16 -23 -25 -10 -72 -7 -79 4 -5 8 -11 7 -20 0 -23 -19 -85 29
-100 78 -5 17 -2 22 12 22 11 0 28 7 39 15 26 19 27 19 46 -15z m408 16 c0 -2
-7 -9 -15 -16 -12 -10 -15 -10 -15 4 0 9 7 16 15 16 8 0 15 -2 15 -4z m-533
-38 c-3 -7 -5 -2 -5 12 0 14 2 19 5 13 2 -7 2 -19 0 -25z m90 -115 c-6 -5 -80
73 -86 91 -2 6 18 -11 43 -37 26 -27 45 -51 43 -54z m893 78 c0 -5 -11 -16
-25 -25 -24 -15 -83 -99 -99 -141 -7 -17 -10 -13 -21 23 -7 23 -18 49 -25 56
-12 16 -8 20 35 30 29 7 29 7 11 -13 -11 -12 -16 -24 -13 -27 3 -4 19 8 34 27
56 67 103 98 103 70z m-663 -7 c-3 -3 -12 -4 -19 -1 -8 3 -5 6 6 6 11 1 17 -2
13 -5z m133 -29 c-21 -22 -25 -35 -30 -85 0 -8 -8 1 -16 20 -15 34 -15 35 16
63 38 34 62 36 30 2z m-53 -2 c-9 -9 -19 -14 -23 -11 -10 10 6 28 24 28 15 0
15 -1 -1 -17z m670 -110 c19 -65 21 -181 3 -228 -34 -92 -117 -158 -215 -173
-33 -6 -61 -9 -63 -8 -1 2 18 33 42 70 25 36 48 83 52 104 4 20 15 53 24 72
26 52 33 80 20 80 -6 0 -15 -10 -20 -22 -8 -18 -9 -12 -6 27 2 28 7 60 11 73
4 13 3 22 -3 22 -5 0 -13 -12 -17 -27 -4 -16 -10 -22 -12 -15 -6 16 40 95 75
127 l27 26 32 -35 c18 -20 39 -59 50 -93z m-847 84 c31 12 39 6 18 -15 -15
-15 -64 -16 -73 -2 -3 6 -15 10 -26 10 -11 0 -18 4 -15 9 4 5 19 5 36 -2 22
-8 38 -8 60 0z m243 -2 c-3 -9 -8 -14 -10 -11 -3 3 -2 9 2 15 9 16 15 13 8 -4z
m37 -9 c0 -3 -4 -8 -10 -11 -5 -3 -10 -1 -10 4 0 6 5 11 10 11 6 0 10 -2 10
-4z m30 -27 c-17 -30 -4 -36 19 -8 14 17 23 21 31 13 7 -7 5 -16 -10 -29 -32
-29 -23 -39 11 -11 43 37 71 35 36 -2 -15 -15 -27 -34 -27 -41 0 -10 -3 -11
-13 -2 -28 23 -23 -1 5 -30 32 -31 53 -32 25 -1 -16 17 -15 21 18 57 41 44 55
41 31 -9 -10 -20 -14 -45 -10 -63 4 -20 -1 -45 -15 -73 -25 -52 -25 -50 -4
-50 15 0 15 -1 0 -18 -25 -27 -21 -36 8 -15 15 11 22 24 19 36 -6 18 11 24 21
7 11 -18 -4 -45 -35 -64 -28 -16 -33 -16 -54 -2 -30 19 -38 11 -20 -22 21 -41
17 -58 -20 -80 -32 -19 -37 -19 -84 -6 -28 8 -56 22 -62 30 -7 7 -19 14 -26
14 -19 0 -18 16 2 24 23 9 36 7 30 -3 -7 -11 3 -41 14 -41 4 0 7 14 6 32 -1
32 -1 32 42 29 25 -1 42 2 42 8 0 6 -20 11 -46 11 -30 0 -59 8 -83 22 -47 28
-50 34 -44 77 7 50 27 92 68 141 19 23 35 46 35 52 0 5 12 7 29 3 24 -5 32 -2
41 14 6 12 15 21 21 21 6 0 6 -8 -1 -21z m189 -101 c11 -21 11 -39 4 -78 -10
-48 -9 -51 13 -56 13 -3 29 -2 35 2 7 4 4 -8 -7 -27 -17 -29 -83 -78 -106 -79
-17 0 -6 23 22 47 17 13 30 30 30 37 0 17 -35 48 -43 39 -11 -10 4 60 16 74 6
9 4 15 -8 19 -18 7 -14 46 8 73 10 11 13 11 17 -5 3 -11 12 -31 19 -46z m-363
12 c-24 -29 -31 -51 -27 -92 1 -9 -3 -19 -10 -23 -8 -6 -10 4 -5 36 4 24 7 55
7 68 1 18 3 21 10 10 8 -13 11 -7 8 18 -1 8 34 23 40 17 2 -2 -8 -17 -23 -34z
m524 -19 c0 -5 -6 -13 -13 -19 -10 -8 -13 -6 -14 9 -1 10 5 19 13 19 8 0 14
-4 14 -9z m-1809 -130 c43 -44 79 -83 79 -86 0 -4 -7 -13 -15 -21 -25 -25 -17
-39 8 -16 40 38 49 27 26 -33 -11 -30 -19 -65 -17 -77 2 -19 8 -13 31 31 l27
55 0 -37 c0 -26 4 -37 15 -37 16 0 30 42 21 65 -3 8 -2 15 2 15 15 0 28 -16
29 -35 0 -11 3 -32 8 -47 6 -25 4 -28 -16 -28 -23 -1 -23 -1 -4 -12 28 -16 34
-28 25 -52 -4 -12 -15 -20 -25 -18 -9 2 -23 -5 -31 -15 -12 -17 -13 -16 -14
12 0 17 -5 37 -10 45 -7 11 -10 3 -10 -28 0 -25 -4 -41 -10 -37 -5 3 -18 0
-29 -7 -26 -16 -29 -12 -70 82 -18 41 -41 93 -52 116 -10 23 -19 47 -19 53 0
7 -6 24 -14 39 -12 24 -28 152 -19 152 3 0 40 -36 84 -79z m2376 33 c3 -8 -1
-22 -8 -29 -12 -12 -14 -10 -15 15 -1 32 13 40 23 14z m-320 -99 c12 -19 18
-35 13 -35 -6 0 -10 5 -10 10 0 6 -9 10 -20 10 -21 0 -80 -72 -80 -99 -1 -19
-46 -54 -60 -46 -18 11 -11 23 38 70 27 24 57 63 67 85 10 22 21 40 24 40 3
-1 16 -16 28 -35z m-739 -10 c1 -1 -7 -5 -19 -8 -11 -3 -18 -3 -15 0 3 4 0 13
-7 21 -11 13 -9 14 13 2 14 -7 26 -14 28 -15z m372 -5 c-25 -35 -56 -54 -75
-46 -8 3 -17 1 -20 -4 -3 -5 -13 -7 -23 -4 -13 5 -14 4 -3 -4 8 -6 11 -17 8
-25 -4 -11 -1 -14 8 -11 8 3 11 13 8 22 -5 13 -3 14 6 6 19 -17 9 -47 -18 -61
-23 -11 -49 -43 -36 -43 20 0 75 32 89 51 l16 23 31 -29 c44 -43 71 -107 63
-150 -6 -35 -57 -115 -72 -115 -4 0 -6 16 -4 36 4 30 8 35 24 31 14 -4 18 -1
16 11 -3 15 -94 66 -204 114 -109 47 -174 80 -169 88 2 4 31 1 62 -6 32 -7 78
-16 103 -19 l45 -5 -27 17 -28 17 32 33 c24 25 28 33 15 33 -9 0 -17 4 -17 9
0 17 15 19 39 6 20 -10 32 -10 67 2 23 8 50 23 60 34 26 29 28 23 4 -11z m61
-53 c-30 -50 -49 -63 -64 -48 -9 10 -8 14 6 23 10 5 30 23 44 39 34 37 41 30
14 -14z m559 34 c0 -5 -7 -11 -14 -14 -10 -4 -13 -1 -9 9 6 15 23 19 23 5z
m-1710 -11 c13 -8 13 -10 -2 -10 -9 0 -20 5 -23 10 -8 13 5 13 25 0z m-455 -9
c3 -5 1 -12 -5 -16 -5 -3 -10 1 -10 9 0 18 6 21 15 7z m1554 -7 c-14 -17 -59
-37 -66 -30 -4 4 63 44 76 46 2 0 -3 -7 -10 -16z m325 -8 c-3 -9 -10 -16 -15
-16 -5 0 -4 9 3 20 14 22 21 20 12 -4z m-1399 -12 c27 -8 60 -14 72 -14 13 0
40 -9 60 -20 21 -11 49 -20 62 -20 19 0 22 -3 14 -11 -7 -7 -19 -8 -30 -4 -29
12 -63 12 -63 -1 0 -7 12 -26 26 -43 14 -17 23 -35 20 -40 -3 -4 -31 -20 -61
-35 -68 -32 -88 -25 -116 39 -22 50 -61 85 -95 85 -29 0 -29 1 -3 51 17 34 24
40 42 34 12 -4 44 -13 72 -21z m1690 -22 l-8 -27 -6 25 c-4 14 -2 30 4 37 14
15 19 -2 10 -35z m-1990 -38 c33 -19 61 -37 63 -39 2 -1 -8 -25 -22 -51 -14
-27 -31 -64 -38 -82 -8 -20 -18 -30 -26 -27 -8 3 -23 5 -35 5 -20 0 -20 0 3
25 30 32 24 31 -34 -1 -52 -29 -66 -28 -37 3 21 22 55 83 46 83 -3 0 -1 10 6
21 6 12 7 19 2 16 -4 -3 -8 15 -9 39 -1 27 4 44 11 44 6 0 38 -16 70 -36z
m675 21 c-28 -16 -80 -21 -64 -6 8 9 41 17 74 19 8 1 4 -5 -10 -13z m1237 -1
c-3 -3 -12 -4 -19 -1 -8 3 -5 6 6 6 11 1 17 -2 13 -5z m-63 -10 c20 -8 11 -24
-13 -24 -10 0 -30 -9 -45 -21 -37 -29 -33 -6 5 25 34 29 32 28 53 20z m-1186
-13 c44 10 49 7 57 -32 9 -38 3 -44 -25 -27 -18 11 -23 11 -34 -4 -18 -25 -29
-23 -81 14 -63 44 -61 60 6 48 22 -4 57 -4 77 1z m92 -31 c0 -13 -1 -13 -10 0
-5 8 -10 22 -10 30 0 13 1 13 10 0 5 -8 10 -22 10 -30z m937 8 c-3 -8 -6 -5
-6 6 -1 11 2 17 5 13 3 -3 4 -12 1 -19z m-168 -4 c-22 -21 -94 -30 -104 -14
-6 10 0 12 28 7 21 -3 37 -2 37 3 0 8 19 16 45 19 5 0 2 -6 -6 -15z m-1298 -4
c13 0 60 -104 49 -108 -18 -7 -25 -1 -25 20 0 17 -6 23 -25 23 -17 0 -29 9
-38 28 -15 30 -8 51 15 43 8 -3 19 -6 24 -6z m269 -17 c17 -15 42 -42 56 -60
23 -31 24 -34 7 -40 -10 -3 -34 -23 -54 -45 -32 -35 -37 -37 -55 -23 -10 8
-27 15 -36 15 -10 0 -18 3 -18 6 0 4 8 13 18 21 15 12 13 13 -17 7 -23 -4 -31
-3 -27 5 4 6 13 11 20 11 21 0 96 59 96 75 0 9 -6 18 -14 21 -17 7 -30 34 -16
34 6 0 24 -12 40 -27z m57 0 c33 -25 60 -70 49 -81 -6 -5 -95 89 -96 101 0 12
10 8 47 -20z m498 10 c19 -9 35 -19 35 -22 0 -4 -20 -18 -44 -33 -38 -23 -45
-24 -58 -12 -23 23 -48 6 -74 -50 l-23 -51 0 40 c-1 59 37 128 74 136 48 10
52 10 90 -8z m-171 -40 c-7 -16 -14 -33 -14 -40 0 -6 -5 -15 -11 -19 -8 -4 -9
1 -4 16 6 19 4 21 -17 15 -25 -8 -20 -2 26 33 37 28 38 28 20 -5z m239 -6 c-3
-5 -1 -7 4 -4 18 11 188 -65 197 -88 3 -8 1 -27 -4 -41 -12 -31 -13 -166 -1
-179 18 -21 42 -134 32 -153 -22 -42 -32 -42 -140 -6 -57 19 -110 34 -117 34
-8 0 -14 3 -14 8 0 17 -85 11 -117 -8 l-33 -19 20 39 c11 22 20 49 20 61 0 21
1 21 20 4 14 -13 28 -16 52 -11 27 6 37 16 57 56 13 27 31 52 40 55 21 7 81
62 81 74 0 5 -6 12 -12 14 -10 4 -10 8 1 15 10 7 10 11 1 17 -7 4 -16 1 -21
-6 -7 -11 -11 -12 -17 -1 -7 10 -11 10 -22 -3 -11 -13 -10 -15 4 -9 9 3 16 1
16 -5 0 -6 -5 -11 -11 -11 -5 0 -7 -5 -3 -11 4 -8 9 -7 15 2 4 7 12 10 16 5 4
-4 -5 -19 -20 -32 -34 -29 -52 -32 -37 -5 11 22 13 41 2 26 -25 -34 -142 -63
-142 -35 0 6 6 10 14 10 8 0 22 3 32 7 13 5 15 3 9 -8 -7 -11 -6 -12 7 -2 8 7
17 11 19 9 2 -3 15 4 29 14 22 17 23 20 6 20 -21 0 -45 27 -46 51 0 9 -8 27
-19 40 l-18 23 43 29 c24 16 42 33 38 38 -3 5 2 6 10 3 9 -3 13 -11 9 -17z
m392 3 c-3 -5 -11 -10 -16 -10 -6 0 -7 5 -4 10 3 6 11 10 16 10 6 0 7 -4 4
-10z m-835 -10 c0 -5 -5 -10 -11 -10 -5 0 -7 5 -4 10 3 6 8 10 11 10 2 0 4 -4
4 -10z m-40 -20 c0 -5 -2 -10 -4 -10 -3 0 -8 5 -11 10 -3 6 -1 10 4 10 6 0 11
-4 11 -10z m840 -15 c0 -7 -6 -15 -12 -18 -10 -3 -10 -7 1 -20 15 -19 1 -23
-16 -6 -8 8 -8 20 -1 40 10 28 28 31 28 4z m-485 -28 c4 -18 5 -39 3 -46 -2
-7 3 -16 10 -18 8 -3 12 5 12 24 0 22 2 25 10 13 24 -37 5 -90 -32 -90 -24 0
-31 20 -20 51 11 29 5 49 -13 49 -20 0 -30 -21 -14 -31 12 -7 11 -11 -3 -26
-17 -16 -18 -16 -18 19 0 53 16 88 39 88 15 0 22 -9 26 -33z m525 23 c0 -5 -5
-10 -11 -10 -5 0 -7 5 -4 10 3 6 8 10 11 10 2 0 4 -4 4 -10z m-1280 -26 c0 -8
-4 -14 -10 -14 -5 0 -10 9 -10 21 0 11 5 17 10 14 6 -3 10 -13 10 -21z m1601
-4 c10 0 19 -3 19 -7 0 -5 -24 -6 -52 -4 -29 3 -44 6 -33 9 11 2 24 8 30 13 6
6 11 6 13 -1 2 -5 12 -10 23 -10z m-2051 -10 c0 -5 -2 -10 -4 -10 -3 0 -8 5
-11 10 -3 6 -1 10 4 10 6 0 11 -4 11 -10z m544 -12 c3 -13 6 -39 6 -58 0 -20
6 -42 13 -49 10 -11 9 -13 -3 -9 -8 2 -18 19 -22 37 -8 30 -32 50 -44 38 -3
-3 -2 -22 2 -42 5 -30 13 -40 43 -53 30 -13 32 -17 15 -19 -35 -6 -70 14 -87
50 -21 44 -21 76 -1 105 21 30 69 30 78 0z m1196 7 c7 -8 17 -12 23 -8 7 4 8
0 2 -13 -4 -10 -10 -40 -12 -66 -3 -27 -9 -48 -13 -48 -14 0 -19 41 -8 71 9
26 7 34 -13 55 -17 18 -19 24 -7 24 9 0 21 -7 28 -15z m-1864 -26 c-25 -30
-34 -59 -18 -59 5 0 13 12 19 28 10 25 11 24 12 -20 1 -54 -14 -63 -49 -28
-23 23 -18 43 18 83 35 37 50 34 18 -4z m77 9 c-31 -35 -34 -44 -23 -73 12
-33 4 -51 -16 -34 -33 27 -3 129 38 129 l21 0 -20 -22z m1715 3 c9 -5 24 -12
33 -14 12 -4 14 -14 10 -49 -5 -38 -9 -43 -31 -43 -16 0 -26 6 -28 18 -2 12 3
17 17 17 25 0 27 13 5 34 -8 9 -20 16 -25 16 -5 0 -9 7 -9 15 0 17 4 18 28 6z
m-1678 -30 c0 -9 -41 -23 -48 -16 -2 2 -1 8 3 14 8 13 45 15 45 2z m1060 -21
c48 -24 50 -34 10 -50 -16 -7 -30 -16 -30 -21 0 -12 17 -11 25 1 8 13 55 13
55 -1 0 -5 12 -35 26 -66 24 -51 25 -59 14 -97 -17 -58 -76 -111 -130 -119
-49 -6 -109 1 -128 16 -9 7 -16 5 -26 -8 -13 -18 -15 -18 -40 -2 -30 20 -60
73 -46 82 5 3 21 3 35 -1 29 -7 32 7 10 46 -16 28 -20 70 -6 70 5 0 14 12 20
28 11 27 20 33 87 65 17 8 41 28 55 45 13 17 25 31 27 31 1 1 21 -8 42 -19z
m606 6 c12 -13 12 -15 -6 -13 -11 1 -20 7 -20 14 0 17 8 16 26 -1z m-727 -40
c-9 -8 -10 -7 -5 7 3 10 7 24 7 30 1 7 3 4 6 -7 3 -10 -1 -23 -8 -30z m347 2
c-15 -10 -16 -6 -9 22 6 22 7 22 13 4 4 -10 2 -22 -4 -26z m508 3 c-4 -17 -9
-30 -11 -27 -3 2 -2 19 2 36 9 41 17 33 9 -9z m-1159 19 c3 -5 1 -10 -4 -10
-6 0 -11 5 -11 10 0 6 2 10 4 10 3 0 8 -4 11 -10z m1665 -17 c0 -16 7 -37 15
-47 19 -25 19 -90 1 -105 -11 -9 -13 -2 -13 37 1 26 -4 68 -10 95 -6 26 -6 47
-2 47 5 0 9 -12 9 -27z m-2315 7 c-3 -5 -11 -10 -16 -10 -6 0 -7 5 -4 10 3 6
11 10 16 10 6 0 7 -4 4 -10z m1977 -24 c11 -14 17 -16 18 -7 0 11 3 11 15 1 9
-7 18 -10 22 -6 4 3 -2 13 -13 21 -19 14 -19 14 1 14 11 0 29 -6 39 -14 11 -8
28 -15 37 -15 10 0 22 -7 27 -16 5 -9 12 -15 15 -15 22 3 27 -2 27 -29 0 -32
9 -37 28 -18 7 7 12 9 12 5 0 -8 -3 -13 -50 -68 -24 -30 -27 -39 -17 -48 10
-8 20 -4 40 17 15 16 25 31 21 35 -3 3 -3 11 1 17 4 7 14 2 26 -14 28 -35 24
-46 -18 -46 -20 0 -34 -3 -30 -6 3 -3 -3 -21 -14 -40 -16 -30 -17 -34 -3 -34
9 0 18 9 21 20 3 11 12 20 20 20 10 0 11 -5 4 -18 -18 -33 -40 -45 -72 -38
-22 4 -29 2 -26 -7 2 -7 21 -12 45 -11 23 0 39 -3 36 -8 -3 -4 -12 -8 -20 -8
-18 0 -18 -9 2 -32 16 -17 14 -19 -27 -38 -27 -12 -66 -20 -101 -20 -57 0 -58
0 -46 24 7 17 20 26 41 28 17 2 33 9 35 17 3 10 0 12 -13 7 -10 -3 -51 -9 -91
-13 -68 -5 -73 -4 -98 20 -15 15 -29 40 -33 57 -3 17 -14 35 -24 41 -11 5 -19
21 -19 35 0 15 4 23 10 19 6 -4 8 -16 4 -27 -4 -14 -2 -19 7 -16 7 2 24 41 38
86 24 77 28 82 54 82 16 0 26 4 22 10 -3 6 -17 10 -31 10 -28 0 -30 7 -8 38
18 27 58 21 86 -12z m118 24 c8 -5 11 -10 5 -10 -5 0 -17 5 -25 10 -8 5 -10
10 -5 10 6 0 17 -5 25 -10z m-900 -20 c6 -11 7 -20 3 -20 -5 0 -14 9 -21 20
-7 11 -8 20 -2 20 5 0 14 -9 20 -20z m940 -11 c0 -6 -4 -7 -10 -4 -5 3 -10 11
-10 16 0 6 5 7 10 4 6 -3 10 -11 10 -16z m-959 -37 c4 -18 3 -32 -2 -32 -5 0
-9 9 -9 19 0 11 -4 23 -10 26 -14 9 -12 27 2 23 7 -3 15 -19 19 -36z m676 6
c-3 -7 -5 -2 -5 12 0 14 2 19 5 13 2 -7 2 -19 0 -25z m-161 0 c19 -21 19 -21
-1 -14 -11 5 -25 9 -32 9 -12 0 -6 27 7 27 4 0 15 -10 26 -22z m-993 -28 c-4
-30 -2 -40 8 -40 11 0 11 -2 -1 -10 -32 -21 -37 -10 -19 53 13 48 18 47 12 -3z
m-235 -9 c2 -18 -2 -39 -9 -47 -17 -20 -3 -30 18 -13 16 12 17 12 7 -1 -7 -8
-8 -24 -4 -35 4 -11 5 -39 2 -61 -4 -35 -1 -44 16 -53 21 -11 21 -11 -4 -36
-30 -30 -30 -36 1 -91 l25 -44 -23 0 c-12 0 -33 -7 -46 -16 l-22 -16 20 -22
c21 -22 21 -23 3 -39 -14 -13 -21 -14 -30 -5 -22 22 -21 2 3 -47 l24 -50 -22
-12 c-12 -6 -23 -11 -23 -10 -1 1 -3 31 -5 67 -2 53 -8 70 -28 93 -14 15 -30
27 -36 27 -6 0 -24 14 -40 30 -25 26 -27 32 -15 40 13 8 13 10 -1 10 -9 0 -37
11 -63 25 -44 24 -62 21 -31 -5 11 -9 12 -16 4 -26 -7 -9 -7 -19 1 -33 16 -30
27 -26 22 9 -6 42 17 39 49 -8 22 -33 40 -112 25 -112 -3 0 -15 9 -25 19 -15
15 -18 28 -14 58 4 29 1 42 -12 53 -15 13 -16 11 -10 -21 5 -27 2 -41 -13 -59
-15 -19 -17 -28 -9 -42 19 -29 -1 -33 -27 -5 -14 15 -30 27 -36 27 -13 0 -48
-34 -73 -70 -14 -20 -21 -23 -35 -14 -26 16 -61 94 -61 139 -1 55 14 77 23 34
8 -41 84 -115 100 -98 8 8 7 13 -4 17 -20 7 -80 67 -80 80 0 5 17 25 38 44
l38 34 -32 29 c-17 17 -33 37 -36 45 -3 8 -9 12 -13 8 -4 -4 2 -23 13 -43 20
-33 20 -35 3 -35 -24 0 -49 56 -34 79 5 9 22 17 37 19 21 3 26 -1 26 -18 0
-24 57 -87 68 -76 4 4 -4 16 -18 26 -25 19 -25 20 -3 20 12 0 25 5 28 10 3 6
-3 10 -14 10 -25 0 -38 40 -23 67 11 19 13 17 24 -26 3 -11 6 -10 17 2 10 13
9 19 -8 36 -13 13 -17 23 -9 27 6 4 19 -4 29 -17 15 -19 19 -20 19 -7 0 9 8
19 19 23 10 3 26 14 36 25 11 12 31 20 49 20 17 0 46 9 63 20 27 16 37 18 58
8 21 -10 28 -8 40 8 13 17 14 17 15 2 0 -9 -8 -23 -18 -30 -23 -18 -52 -63
-52 -84 0 -9 8 -22 17 -29 13 -10 14 -16 7 -26 -17 -22 -24 -61 -11 -56 7 2
14 12 16 23 1 10 10 26 18 35 13 15 12 19 -7 32 -25 17 -19 61 11 77 24 14 42
76 28 103 -9 15 -8 18 3 15 7 -3 14 -19 16 -37z m179 7 c-3 -7 -5 -2 -5 12 0
14 2 19 5 13 2 -7 2 -19 0 -25z m202 -10 c-7 -13 -14 -18 -16 -11 -3 7 1 22 8
35 7 13 14 18 16 11 3 -7 -1 -22 -8 -35z m491 31 c0 -25 -22 -49 -45 -49 -14
0 -25 -4 -25 -10 0 -5 7 -10 15 -10 20 0 19 -16 -1 -24 -25 -10 -32 -7 -57 20
-33 35 -26 77 12 69 14 -3 40 -1 56 4 41 13 45 13 45 0z m440 1 c0 -5 -5 -10
-11 -10 -5 0 -7 5 -4 10 3 6 8 10 11 10 2 0 4 -4 4 -10z m-1530 -29 c0 -3 -5
-13 -10 -21 -7 -11 -10 -11 -10 -2 0 23 -20 2 -20 -21 0 -12 -12 -30 -26 -41
-22 -15 -30 -16 -49 -6 -13 7 -28 9 -35 5 -6 -4 1 11 17 34 29 42 83 72 115
63 10 -2 18 -7 18 -11z m275 9 c3 -5 1 -10 -4 -10 -6 0 -11 5 -11 10 0 6 2 10
4 10 3 0 8 -4 11 -10z m-207 -20 c28 -1 -17 -30 -45 -30 -21 0 -22 2 -11 20 7
11 19 18 26 15 8 -3 21 -5 30 -5z m1527 -39 c-4 -17 -11 -29 -15 -26 -5 3 -7
12 -5 20 3 8 7 22 10 31 9 28 17 7 10 -25z m-1207 -7 c26 9 61 -19 45 -35 -9
-9 -9 -18 -2 -32 14 -25 -4 -48 -23 -29 -19 19 -36 14 -40 -10 -2 -15 -10 -23
-23 -23 -16 0 -19 6 -17 29 l4 29 -32 -26 c-32 -28 -42 -32 -53 -21 -9 9 12
56 31 70 23 17 9 28 -17 14 -12 -6 -21 -7 -21 -1 0 10 24 21 45 21 8 0 26 -11
41 -25 15 -14 30 -25 34 -25 14 0 32 29 25 40 -7 11 -26 14 -22 3 1 -5 -2 -8
-8 -8 -5 0 -11 5 -11 10 -1 6 -2 15 -3 20 -1 6 -5 3 -11 -5 -8 -12 -10 -12
-16 4 -11 29 17 40 38 15 11 -13 24 -18 36 -15z m174 -4 c-6 -15 -11 -19 -16
-12 -10 17 4 56 15 45 6 -6 6 -19 1 -33z m-924 13 c5 -10 6 -27 1 -38 -4 -11
-8 -36 -9 -55 l-2 -35 -8 35 c-14 58 -18 98 -12 104 10 11 21 6 30 -11z m888
-34 c18 -20 18 -20 -7 -14 -19 5 -28 2 -32 -9 -10 -27 -27 -18 -27 14 0 25 4
30 23 30 13 0 32 -9 43 -21z m-696 -37 c0 -15 -24 -32 -44 -32 -20 0 -19 2 4
20 27 21 40 25 40 12z m672 -42 c24 0 16 -13 -10 -16 -9 -1 -28 -6 -42 -10
-24 -7 -24 -6 -9 12 9 10 14 26 11 34 -4 11 -1 10 12 -3 10 -9 27 -17 38 -17z
m596 -27 l73 -17 -27 -21 c-34 -27 -79 -22 -101 11 -12 19 -24 24 -57 24 -39
1 -40 1 -21 16 11 8 29 13 40 10 11 -3 53 -13 93 -23z m-688 8 c0 -6 -4 -13
-10 -16 -5 -3 -10 1 -10 9 0 9 5 16 10 16 6 0 10 -4 10 -9z m149 -25 c8 -13
22 -28 32 -32 12 -6 16 -14 10 -22 -6 -10 -16 -5 -42 21 -19 19 -33 40 -31 46
6 18 18 13 31 -13z m-68 0 c-13 -16 -61 -28 -61 -15 0 7 29 18 69 28 2 1 -2
-5 -8 -13z m-774 -43 c18 -39 19 -48 8 -60 -11 -11 -14 -8 -13 17 1 17 -6 38
-15 48 -18 19 -23 42 -9 42 4 0 17 -21 29 -47z m584 30 c13 -16 12 -17 -3 -4
-17 13 -22 21 -14 21 2 0 10 -8 17 -17z m69 -2 c0 7 9 4 21 -7 13 -12 33 -17
57 -16 37 2 72 -11 60 -23 -3 -4 -22 -2 -42 3 -37 11 -45 5 -24 -16 9 -9 9
-12 0 -12 -6 0 -17 9 -24 20 -16 25 -28 26 -28 0 0 -12 -5 -17 -14 -14 -8 3
-18 -7 -26 -25 -7 -17 -16 -31 -21 -31 -16 0 -10 48 7 54 8 3 13 10 10 15 -4
5 -23 0 -44 -12 -24 -12 -46 -18 -57 -13 -17 6 -17 8 4 30 12 13 36 27 53 30
23 4 29 10 24 22 -6 15 -4 15 19 0 16 -11 25 -12 25 -5z m590 -52 c0 -12 -102
-31 -145 -27 -32 2 -40 7 -40 23 0 15 9 21 35 25 43 8 80 27 80 42 0 7 16 -3
35 -22 19 -19 35 -37 35 -41z m73 43 c23 -20 22 -25 -13 -58 -66 -66 -213
-110 -294 -90 -41 10 -30 25 14 19 26 -4 40 -2 40 6 0 6 -10 11 -22 11 -51 0
-66 10 -63 41 3 38 17 53 44 44 30 -9 26 -29 -4 -21 -34 9 -31 2 9 -23 43 -27
118 -27 189 -1 55 21 118 71 70 56 -22 -7 -73 17 -73 34 0 13 84 -1 103 -18z
m550 8 c3 -11 1 -20 -4 -20 -5 0 -9 9 -9 20 0 11 2 20 4 20 2 0 6 -9 9 -20z
m-319 -18 c27 -9 53 -24 57 -32 22 -41 59 -151 58 -172 -1 -15 -6 -8 -15 22
-25 83 -55 130 -82 130 -17 0 -62 -38 -62 -52 0 -5 13 0 29 11 39 28 48 27 67
-11 16 -32 16 -33 -2 -16 -19 16 -21 16 -49 -7 -17 -13 -27 -27 -23 -31 5 -4
16 0 26 9 28 26 40 21 50 -20 53 -215 68 -269 77 -275 5 -4 10 -6 12 -5 4 4
-18 91 -29 114 -12 24 -5 53 13 53 8 0 9 -4 0 -13 -8 -10 -7 -18 3 -32 7 -10
11 -27 8 -37 -2 -10 1 -18 7 -18 6 0 11 5 11 10 0 6 12 10 28 10 22 -1 24 -2
10 -10 -11 -7 -14 -17 -10 -32 5 -20 3 -21 -10 -10 -10 8 -19 9 -22 3 -4 -5
-2 -12 4 -16 6 -4 7 -11 4 -17 -5 -7 2 -9 20 -6 17 4 25 1 23 -6 -2 -6 -17
-11 -33 -11 -25 0 -29 -4 -29 -29 -1 -20 -16 -45 -51 -85 -55 -61 -78 -97 -70
-110 3 -5 -3 -16 -14 -26 -14 -13 -17 -22 -10 -30 7 -9 6 -16 -4 -24 -11 -9
-17 -4 -30 29 -16 40 -16 42 4 67 11 14 20 33 20 43 0 9 16 38 35 63 33 43 47
97 25 97 -5 0 -10 -13 -10 -29 0 -44 -89 -137 -165 -173 -63 -29 -140 -39
-133 -16 3 7 13 13 23 13 10 0 19 8 21 17 2 14 -3 17 -22 12 -20 -5 -24 -3
-24 18 0 13 -6 32 -13 42 -11 15 -6 25 46 77 52 52 64 59 101 61 36 1 37 2 9
5 -43 5 -42 25 2 49 31 16 46 34 30 34 -17 0 -66 -33 -84 -56 l-21 -27 0 111
c0 62 -4 113 -10 117 -6 4 -8 -17 -4 -57 l5 -63 -20 24 c-33 37 -29 117 8 167
15 21 38 48 50 58 21 20 22 19 62 -20 51 -50 102 -156 123 -258 9 -44 18 -82
21 -84 30 -30 -14 156 -57 243 -17 33 -44 77 -60 97 -16 21 -26 38 -20 38 11
0 32 45 32 70 0 23 0 23 64 2z m-703 -28 c14 -38 3 -41 -16 -5 -9 18 -11 31
-5 31 6 0 15 -12 21 -26z m117 6 c-7 -11 -16 -20 -20 -20 -5 0 -8 9 -8 20 0
13 7 20 20 20 18 0 19 -2 8 -20z m1292 6 c0 -3 -4 -8 -10 -11 -5 -3 -10 -1
-10 4 0 6 5 11 10 11 6 0 10 -2 10 -4z m-1350 -35 c-6 -12 -16 -19 -21 -15 -6
4 -4 13 7 25 21 24 29 18 14 -10z m514 10 c17 -19 17 -19 -1 -15 -30 8 -105
-75 -125 -138 l-17 -53 6 45 c8 61 19 87 56 137 35 47 55 53 81 24z m392 -93
c-8 -46 -13 -109 -10 -140 2 -32 1 -58 -3 -58 -9 1 -134 193 -150 231 -11 26
-11 26 43 27 31 1 70 10 91 21 21 10 39 15 41 11 2 -5 -3 -46 -12 -92z m142
77 c-6 -6 -58 8 -58 16 0 4 14 3 31 -3 16 -6 29 -12 27 -13z m295 -20 c-15
-14 -47 -31 -70 -37 -24 -7 -43 -17 -43 -23 0 -5 -5 -3 -10 5 -6 10 -10 11
-10 3 0 -19 -67 -16 -101 4 -16 10 -29 24 -29 32 0 11 4 10 20 -4 11 -10 37
-19 57 -20 49 -4 151 30 183 61 14 14 26 20 28 14 2 -5 -9 -21 -25 -35z m-229
14 c-3 -5 -10 -7 -15 -3 -5 3 -7 10 -3 15 3 5 10 7 15 3 5 -3 7 -10 3 -15z
m-1228 -36 c-8 -8 -12 -3 -21 27 l-7 25 17 -23 c9 -13 14 -26 11 -29z m34 32
c21 -25 1 -31 -22 -7 -18 18 -19 22 -6 22 8 0 21 -7 28 -15z m140 7 c0 -5 -9
-17 -20 -27 -24 -22 -26 -40 -3 -31 15 6 14 4 -2 -14 -10 -11 -19 -29 -20 -40
-1 -10 -10 -29 -21 -41 -19 -22 -19 -22 2 -11 22 12 42 32 43 45 1 4 1 14 1
22 0 8 4 15 9 15 4 0 5 -19 1 -41 -8 -40 -22 -59 -47 -59 -17 0 -16 -15 2 -30
24 -20 18 -30 -11 -20 -14 6 -27 10 -29 10 -2 0 -1 -17 1 -37 5 -36 5 -37 -10
-19 -9 11 -16 23 -16 28 0 20 -17 5 -25 -24 -13 -40 -41 -53 -31 -14 4 15 2
26 -4 26 -5 0 -10 -3 -10 -8 0 -10 -41 -35 -47 -29 -2 3 3 19 12 36 17 34 12
40 -12 16 -8 -9 -18 -13 -22 -10 -3 4 10 20 29 36 31 26 32 29 12 29 -44 0
-13 33 33 34 11 1 20 6 20 13 0 6 3 15 8 19 4 4 7 -4 7 -17 l1 -24 20 28 c11
15 28 27 36 27 14 0 14 -3 -2 -20 -22 -24 -9 -27 17 -3 39 35 11 67 -31 36
-26 -20 -91 -22 -91 -3 0 5 9 6 20 3 11 -3 31 2 45 11 13 9 34 16 45 16 11 0
23 8 27 18 12 35 63 78 63 54z m-267 -62 c-4 -24 -3 -24 25 8 15 17 32 32 35
32 12 0 7 -34 -8 -54 -20 -26 -19 -33 5 -41 21 -7 28 -25 8 -25 -6 0 -26 -11
-43 -25 -18 -13 -36 -21 -40 -17 -4 4 -5 -8 -2 -25 5 -24 3 -33 -7 -33 -23 0
-27 41 -6 68 19 24 15 51 -10 67 -11 7 -51 -14 -63 -32 -11 -17 -42 -16 -78 2
-41 22 -27 39 27 31 45 -6 55 2 29 24 -19 16 -20 50 -1 50 8 0 23 -11 34 -25
19 -24 40 -36 27 -15 -3 5 1 20 9 32 16 22 16 22 16 -10 0 -17 5 -32 10 -32 6
0 10 15 10 33 0 19 3 37 7 41 11 11 22 -25 16 -54z m37 40 c0 -5 -4 -10 -10
-10 -5 0 -10 5 -10 10 0 6 5 10 10 10 6 0 10 -4 10 -10z m556 -22 c-9 -13 -20
-48 -26 -77 -8 -46 -7 -58 11 -94 12 -22 32 -49 45 -60 20 -15 24 -27 24 -70
-1 -46 -5 -57 -39 -96 -31 -36 -45 -45 -77 -47 -21 -2 -44 -11 -51 -20 -12
-17 -38 -9 -63 20 -7 9 -21 16 -31 16 -11 0 -19 4 -19 9 0 6 -13 18 -29 27
-31 18 -51 52 -51 86 0 14 -5 18 -15 14 -8 -3 -15 -2 -15 2 0 5 -15 16 -32 25
-26 12 -29 16 -12 16 11 1 29 -6 40 -14 21 -16 54 -20 54 -6 0 19 -35 36 -74
36 -29 0 -41 4 -41 14 0 22 108 20 133 -2 16 -15 21 -15 30 -4 9 10 7 19 -4
36 -16 22 -15 22 11 19 16 -2 35 -14 43 -27 16 -23 16 -24 -8 -17 l-25 7 24
-20 c42 -37 55 -17 26 39 -15 28 -14 30 4 30 27 0 34 15 16 30 -9 8 -29 10
-50 7 -31 -5 -34 -3 -32 16 3 31 -28 33 -58 3 -32 -33 -35 -32 -35 2 0 34 23
71 34 54 20 -33 206 4 271 54 35 27 42 25 21 -8z m1018 24 c2 -4 -18 -36 -45
-71 -44 -57 -49 -68 -49 -115 1 -28 5 -71 10 -96 4 -25 7 -46 6 -48 -2 -1 -14
7 -29 18 -23 18 -25 18 -20 2 2 -10 29 -33 58 -50 46 -28 56 -39 66 -74 11
-44 6 -92 -12 -114 -15 -19 -75 13 -136 71 -26 26 -51 41 -55 37 -13 -13 84
-97 148 -128 59 -29 70 -49 56 -99 -10 -37 -37 -44 -182 -47 -115 -2 -149 8
-223 67 -43 35 -47 66 -21 150 10 32 16 97 18 180 3 144 8 173 43 228 25 40
38 45 62 23 45 -41 144 -27 225 30 65 45 72 49 80 36z m-1426 -19 c-4 -22 -22
-20 -26 1 -2 10 3 16 13 16 10 0 15 -7 13 -17z m-49 -28 c-2 -2 -18 -6 -34
-10 l-30 -7 30 20 c17 10 32 15 34 10 1 -5 1 -11 0 -13z m1537 -7 c4 -6 3 -8
-3 -5 -6 4 -18 -2 -28 -13 -10 -11 -23 -20 -29 -20 -6 0 2 12 17 25 32 29 33
29 43 13z m-468 -75 c-13 -51 -33 -70 -23 -23 6 31 21 60 30 60 2 0 -1 -17 -7
-37z m-1248 7 c0 -10 -9 -24 -20 -30 -22 -12 -40 -6 -40 12 0 6 3 8 7 5 3 -4
12 2 20 13 18 25 33 26 33 0z m-275 -60 c26 -49 36 -141 23 -215 -4 -28 -1
-52 11 -80 54 -122 55 -138 15 -191 -38 -49 -41 -59 -19 -50 8 3 15 1 15 -5 0
-6 -30 -25 -67 -42 -68 -32 -68 -32 -235 -32 -107 0 -171 4 -178 11 -15 15 -1
46 19 40 46 -13 81 -17 81 -9 0 5 -22 15 -49 22 -56 14 -90 43 -74 63 6 7 18
44 28 81 10 38 25 71 32 74 8 3 21 23 30 44 8 21 19 37 23 34 14 -9 46 9 90
48 54 50 44 61 -11 13 -41 -35 -89 -50 -73 -23 4 6 19 30 32 52 16 25 21 40
13 43 -17 6 -14 62 4 62 8 0 19 10 26 22 11 20 12 21 22 2 19 -37 81 -94 102
-94 25 0 50 24 60 60 4 14 16 39 26 56 11 17 19 44 20 60 l0 29 11 -25 c5 -14
16 -36 23 -50z m659 48 c-6 -16 -54 -52 -60 -45 -5 5 46 57 57 57 5 0 6 -6 3
-12z m-1098 -14 c64 -43 105 -173 76 -245 l-15 -38 -43 49 c-28 30 -66 58
-104 76 l-59 27 21 31 c31 45 89 116 94 116 3 0 16 -7 30 -16z m1701 -6 c-3
-8 -6 -5 -6 6 -1 11 2 17 5 13 3 -3 4 -12 1 -19z m-1380 -10 c-3 -8 -6 -5 -6
6 -1 11 2 17 5 13 3 -3 4 -12 1 -19z m288 8 c-11 -7 -31 -17 -45 -21 -25 -8
-25 -8 -6 14 11 11 31 21 45 21 24 0 25 -1 6 -14z m1165 -17 c0 -6 -4 -7 -10
-4 -5 3 -10 11 -10 16 0 6 5 7 10 4 6 -3 10 -11 10 -16z m-1503 -16 c9 -16 19
-30 21 -33 2 -3 12 6 22 20 l19 25 -6 -25 c-7 -28 -21 -50 -33 -50 -5 0 -19
17 -31 38 -13 20 -28 40 -33 44 -7 5 -4 8 6 8 10 0 25 -12 35 -27z m406 10
c12 -4 16 -11 11 -22 -3 -9 -9 -24 -11 -33 -7 -25 -23 -12 -23 19 l0 27 -30
-29 c-27 -26 -30 -27 -30 -9 0 31 29 66 49 59 9 -4 24 -10 34 -12z m347 8 c0
-12 -20 -25 -27 -18 -7 7 6 27 18 27 5 0 9 -4 9 -9z m60 -11 c0 -5 -5 -10 -11
-10 -5 0 -7 5 -4 10 3 6 8 10 11 10 2 0 4 -4 4 -10z m-856 -25 c9 -14 13 -25
8 -25 -5 0 -14 11 -20 25 -6 14 -10 25 -8 25 2 0 11 -11 20 -25z m541 15 c-3
-5 -11 -10 -16 -10 -6 0 -7 5 -4 10 3 6 11 10 16 10 6 0 7 -4 4 -10z m-192
-23 c-3 -14 2 -29 12 -37 15 -12 18 -12 27 3 5 10 13 15 19 12 14 -9 11 -25
-6 -25 -8 0 -20 -8 -26 -18 -8 -12 -20 -17 -35 -14 -17 3 -21 9 -18 28 2 14 0
33 -5 43 -12 21 -5 31 19 31 13 0 16 -6 13 -23z m1351 -56 c-2 -2 -4 1 -4 7 0
7 -4 12 -10 12 -5 0 -10 -11 -10 -25 0 -14 -4 -25 -9 -25 -5 0 -12 -12 -15
-26 -4 -15 -9 -24 -12 -21 -3 3 1 20 9 39 9 18 21 51 28 73 l13 40 7 -35 c4
-19 6 -37 3 -39z m-840 50 c4 -5 -3 -7 -14 -4 -23 6 -26 13 -6 13 8 0 17 -4
20 -9z m740 -32 c25 -37 26 -44 15 -72 -7 -17 -15 -25 -17 -19 -2 6 2 21 8 33
8 13 8 24 2 28 -10 6 -45 71 -39 71 3 0 17 -18 31 -41z m529 -27 c2 -32 1 -48
-4 -40 -5 7 -8 36 -8 63 1 60 6 50 12 -23z m-1617 37 c31 -19 38 -49 12 -49
-6 0 -8 7 -4 15 3 10 -1 15 -12 15 -22 0 -42 -19 -42 -39 0 -22 -31 -51 -54
-51 -19 1 -19 2 7 25 l28 25 -25 0 c-39 0 -33 28 7 32 24 2 33 8 35 26 4 27 6
27 48 1z m190 -49 c5 0 26 -14 47 -31 23 -19 37 -25 38 -17 0 7 11 -27 24 -77
13 -49 22 -91 20 -93 -5 -5 -41 51 -54 86 -8 17 -20 32 -28 32 -11 0 -6 -14
16 -54 35 -61 37 -71 16 -80 -9 -3 -24 4 -37 19 -29 33 -45 32 -23 -1 23 -36
6 -28 -48 23 -25 23 -44 49 -44 58 1 10 16 31 32 49 l30 31 13 -23 c13 -23 32
-22 32 4 0 8 -18 32 -40 54 -40 40 -57 68 -22 37 10 -10 23 -17 28 -17z m-192
-5 c3 -9 0 -15 -9 -15 -8 0 -15 7 -15 15 0 8 4 15 9 15 5 0 11 -7 15 -15z
m-211 -11 c3 -4 -1 -13 -9 -22 -10 -9 -12 -17 -5 -21 6 -4 7 -12 1 -21 -12
-19 -13 -60 -1 -60 5 0 23 14 40 32 26 27 31 29 31 12 -1 -11 -18 -31 -41 -46
-63 -45 -64 -43 -53 71 6 56 18 74 37 55z m278 -34 c8 0 8 -4 -1 -15 -18 -21
-29 -19 -36 9 -8 34 7 57 17 28 5 -12 14 -22 20 -22z m93 11 c-4 -3 -9 0 -11
7 -3 6 -10 9 -15 6 -7 -4 -8 -2 -4 5 6 9 11 9 22 0 8 -6 12 -15 8 -18z m-1084
15 c0 -3 -4 -8 -10 -11 -5 -3 -10 -1 -10 4 0 6 5 11 10 11 6 0 10 -2 10 -4z
m800 -11 c0 -8 -6 -15 -14 -15 -8 0 -28 -14 -45 -31 -17 -17 -31 -26 -31 -20
0 6 6 15 13 20 6 6 26 22 42 35 36 30 35 30 35 11z m1320 -47 c0 -15 -4 -28
-8 -28 -5 0 -7 13 -4 29 2 16 -1 32 -7 35 -6 4 -11 13 -11 19 1 25 30 -28 30
-55z m-1223 16 c1 -24 8 -41 22 -50 17 -13 19 -18 8 -34 -6 -11 -17 -20 -24
-20 -6 0 -14 -6 -16 -12 -4 -10 -6 -10 -6 -1 -1 6 4 15 9 18 6 3 10 17 10 31
0 14 -4 23 -9 20 -4 -3 -6 7 -4 22 3 26 3 26 -8 5 -13 -26 -29 -30 -29 -9 0
11 36 66 44 66 1 0 2 -16 3 -36z m43 1 c0 -19 -4 -35 -10 -35 -5 0 -10 16 -10
35 0 19 5 35 10 35 6 0 10 -16 10 -35z m-910 11 c0 -16 -28 -42 -36 -33 -7 6
18 47 28 47 5 0 8 -6 8 -14z m1040 -5 c0 -11 -19 -24 -37 -27 -7 -1 -13 2 -13
7 0 5 7 9 15 9 8 0 15 5 15 10 0 6 5 10 10 10 6 0 10 -4 10 -9z m-928 -44 c37
-30 54 -51 56 -71 4 -35 -28 -137 -40 -130 -6 4 -8 -5 -3 -25 4 -18 3 -31 -3
-31 -6 0 -10 -25 -10 -55 1 -97 -23 -114 -135 -99 -40 6 -47 11 -56 37 -15 41
-14 144 0 149 9 3 9 10 0 26 -10 19 -9 32 8 76 29 79 88 166 111 166 11 0 43
-19 72 -43z m1828 -17 c0 -5 -5 -10 -11 -10 -5 0 -7 5 -4 10 3 6 8 10 11 10 2
0 4 -4 4 -10z m-685 -38 c-17 -4 -45 15 -45 30 0 5 14 1 31 -9 22 -13 26 -19
14 -21z m813 31 c-10 -2 -26 -2 -35 0 -10 3 -2 5 17 5 19 0 27 -2 18 -5z
m-102 -25 c4 -7 3 -10 -1 -5 -5 4 -29 -12 -54 -35 -25 -24 -39 -34 -31 -23 11
17 70 74 77 75 1 0 5 -6 9 -12z m98 -60 c-4 -29 -11 -64 -15 -78 -9 -25 -4 34
7 92 4 22 1 27 -18 31 -20 4 -20 4 5 6 l28 1 -7 -52z m-717 4 c17 -12 36 -22
42 -22 6 0 11 -6 11 -14 0 -8 3 -21 6 -30 5 -12 0 -16 -22 -16 -15 0 -37 -8
-48 -19 -27 -24 -84 -43 -91 -30 -4 5 -15 9 -26 9 -11 0 -17 5 -14 10 3 6 -5
10 -19 10 -14 0 -28 5 -31 10 -3 6 1 10 9 10 8 0 18 5 21 10 4 7 -8 8 -37 5
-40 -6 -42 -5 -24 9 10 8 42 20 72 26 54 11 84 32 64 45 -5 3 -10 1 -10 -5 0
-6 -4 -8 -10 -5 -5 3 -10 12 -10 19 0 19 80 4 117 -22z m117 -4 c9 -12 16 -41
16 -64 0 -35 -4 -43 -22 -47 -12 -4 -23 -5 -25 -4 -1 2 -5 33 -9 70 -6 57 -4
67 9 67 9 0 23 -10 31 -22z m550 13 c4 -5 -3 -7 -14 -4 -23 6 -26 13 -6 13 8
0 17 -4 20 -9z m773 -23 c-3 -8 -6 -5 -6 6 -1 11 2 17 5 13 3 -3 4 -12 1 -19z
m-227 -11 c0 -7 -7 -22 -15 -33 -13 -17 -13 -16 -3 14 13 34 18 40 18 19z
m-712 -27 c-7 -11 -17 -20 -22 -20 -5 0 -1 9 9 20 10 11 20 20 22 20 2 0 -2
-9 -9 -20z m-120 -22 c-21 -33 -108 -71 -108 -49 0 6 6 11 14 11 7 0 31 13 52
29 47 36 61 39 42 9z m1052 -34 c0 -8 -4 -14 -10 -14 -5 0 -10 9 -10 21 0 11
5 17 10 14 6 -3 10 -13 10 -21z m-1370 -10 c0 -12 9 -15 38 -13 20 1 51 -1 68
-5 17 -4 43 -2 58 4 24 9 31 7 41 -7 12 -15 16 -16 39 -4 14 8 29 12 32 8 8
-7 -89 -51 -159 -72 -53 -16 -143 -20 -150 -7 -3 4 23 8 57 8 40 1 80 9 115
25 69 29 53 36 -24 9 -72 -25 -151 -26 -177 -3 -23 20 -23 42 0 59 24 19 62
18 62 -2z m-127 -35 c21 8 27 4 56 -41 18 -27 31 -52 28 -54 -2 -3 -17 0 -32
6 -16 6 -37 9 -49 8 -16 -2 -21 4 -27 30 -7 35 -16 49 -24 40 -9 -9 13 -90 27
-99 10 -6 10 -11 1 -20 -18 -18 -29 -3 -43 61 -7 33 -17 60 -23 60 -9 0 -7
-18 9 -70 7 -22 6 -23 -9 -12 -13 11 -37 89 -37 121 0 4 22 -3 49 -15 38 -18
55 -22 74 -15z m557 16 c14 -19 14 -19 -2 -6 -10 7 -18 18 -18 24 0 6 1 8 3 6
1 -2 9 -13 17 -24z m-30 -28 c0 -7 15 -18 33 -25 24 -9 29 -15 18 -21 -8 -5
-21 -7 -28 -4 -12 5 -12 7 -1 14 10 7 10 9 -3 9 -19 0 -52 34 -43 43 9 9 24
-1 24 -16z m747 -9 c-3 -7 -5 -2 -5 12 0 14 2 19 5 13 2 -7 2 -19 0 -25z
m-578 8 c-2 -2 -15 -9 -29 -15 -24 -11 -24 -11 -6 3 16 13 49 24 35 12z m797
-33 c-10 -10 -19 5 -10 18 6 11 8 11 12 0 2 -7 1 -15 -2 -18z m-856 1 c0 -8
-19 -13 -24 -6 -3 5 1 9 9 9 8 0 15 -2 15 -3z m296 -30 c31 -13 61 -15 149
-11 61 3 118 8 128 12 9 4 17 3 17 -3 0 -5 -44 -14 -98 -20 -106 -12 -204 -2
-239 24 -25 18 -4 17 43 -2z m346 -61 c7 -9 7 -13 0 -13 -14 0 -22 26 -20 63
l1 32 4 -35 c3 -19 9 -41 15 -47z m189 40 c-8 -15 -10 -15 -11 -2 0 17 10 32
18 25 2 -3 -1 -13 -7 -23z m-1446 -13 c3 -5 2 -10 -4 -10 -5 0 -13 5 -16 10
-3 6 -2 10 4 10 5 0 13 -4 16 -10z m555 -73 c5 -26 10 -70 10 -97 0 -44 -3
-51 -37 -78 -70 -54 -213 -145 -219 -139 -4 4 -9 48 -11 99 l-5 93 51 38 c28
20 55 37 61 37 16 0 12 -18 -6 -28 -11 -6 -13 -11 -5 -16 17 -11 29 1 36 34 4
18 24 44 51 66 24 20 42 39 39 42 -3 3 -11 0 -17 -6 -20 -20 -32 -13 -14 7 26
29 53 8 66 -52z m-1745 -37 c-8 -45 -16 -85 -18 -87 -3 -2 -7 23 -11 56 -6 53
-4 64 15 91 13 16 24 28 26 27 1 -2 -4 -41 -12 -87z m1198 58 c6 -8 7 -24 2
-34 -7 -17 -9 -15 -15 11 -5 20 -8 23 -9 10 -1 -18 -2 -19 -12 -2 -20 34 13
49 34 15z m1400 1 c-6 -6 -21 -9 -34 -6 -22 4 -22 4 4 6 15 0 27 6 27 13 0 6
3 8 7 5 4 -4 2 -12 -4 -18z m-106 5 c-3 -3 -12 -4 -19 -1 -8 3 -5 6 6 6 11 1
17 -2 13 -5z m-2579 -24 c26 0 41 -4 37 -10 -11 -19 -125 -7 -125 12 0 6 10 8
23 4 12 -3 41 -6 65 -6z m2617 -20 l50 -7 -51 -2 c-33 -1 -57 4 -70 15 -19 15
-19 16 1 8 11 -4 43 -10 70 -14z m-953 -18 c-6 -2 -34 -21 -61 -43 -28 -22
-55 -38 -61 -34 -6 4 20 29 57 56 42 31 69 45 72 37 2 -7 -1 -14 -7 -16z
m-1636 -7 c6 -2 14 -31 18 -65 4 -34 10 -69 13 -78 4 -13 1 -12 -17 4 -18 18
-20 25 -11 43 10 17 9 21 -3 21 -19 0 -29 -48 -20 -97 6 -35 6 -37 -9 -24 -10
8 -17 28 -17 48 0 20 -4 32 -10 28 -5 -3 -10 -21 -10 -38 0 -23 -3 -28 -9 -17
-6 8 -7 27 -4 42 3 17 1 28 -6 28 -6 0 -11 -8 -11 -17 0 -15 -2 -14 -15 3 -13
17 -14 17 -15 2 0 -10 -4 -18 -10 -18 -13 0 -13 55 0 78 5 9 14 29 20 44 9 26
12 27 57 22 26 -3 53 -7 59 -9z m2577 -10 c30 -6 37 -12 37 -30 0 -62 -55
-145 -80 -121 -9 8 -14 8 -17 -1 -3 -7 -11 -13 -18 -13 -7 0 -15 6 -18 13 -3
8 -10 5 -22 -10 -21 -30 -35 -29 -35 2 0 14 5 25 11 25 5 0 17 16 25 35 17 41
17 45 4 45 -5 0 -10 -6 -10 -14 0 -15 -38 -66 -49 -66 -14 0 32 85 64 119 20
21 37 30 50 27 11 -3 37 -8 58 -11z m-1049 -132 c4 -32 9 -75 12 -95 4 -23 2
-38 -4 -38 -14 0 -19 21 -27 113 -8 90 9 108 19 20z m136 -103 c0 -5 -18 -19
-41 -31 -47 -23 -43 -7 5 22 36 22 36 22 36 9z m-1023 -182 c-3 -8 -6 -5 -6 6
-1 11 2 17 5 13 3 -3 4 -12 1 -19z m1636 -183 c6 -39 6 -39 -8 -15 -8 14 -14
36 -15 50 0 36 16 11 23 -35z m-1626 23 c-3 -8 -6 -5 -6 6 -1 11 2 17 5 13 3
-3 4 -12 1 -19z m-307 -238 c0 -5 -5 -10 -11 -10 -5 0 -7 5 -4 10 3 6 8 10 11
10 2 0 4 -4 4 -10z m184 -28 c39 -7 63 -32 32 -32 -9 0 -16 -8 -16 -19 0 -10
-7 -24 -15 -31 -13 -11 -22 -10 -50 3 -32 15 -35 20 -33 57 1 35 4 39 22 35
12 -3 39 -9 60 -13z m1037 -16 c32 -7 41 -25 33 -66 l-6 -30 -30 25 c-16 14
-40 28 -54 31 -27 7 -28 8 -13 35 6 12 17 18 27 15 9 -2 29 -7 43 -10z m668
-2 c-10 -12 -10 -17 0 -23 18 -11 10 -76 -9 -76 -8 -1 -44 -22 -79 -48 -64
-48 -81 -55 -81 -36 0 14 -63 39 -102 39 l-33 0 30 25 c35 28 51 31 71 10 17
-16 44 -20 44 -7 0 5 -10 14 -22 20 -20 10 -19 10 12 6 19 -2 29 -2 23 2 -19
9 -16 24 3 17 12 -4 15 -2 12 8 -2 7 -15 16 -29 19 -16 4 -20 8 -11 14 16 9
52 -2 53 -17 1 -7 0 -24 -1 -39 -1 -16 3 -28 9 -28 13 0 25 62 17 88 -4 11 -2
23 4 27 5 3 10 2 10 -3 0 -19 40 -20 63 -1 27 23 34 24 16 3z m-1979 -23 c0
-8 -3 -12 -6 -8 -4 3 -19 0 -33 -8 -25 -12 -28 -12 -40 7 -7 11 -19 17 -27 14
-8 -3 -14 -2 -14 3 0 5 27 8 60 7 44 -1 60 -5 60 -15z m707 -66 c0 -18 -19
-15 -25 3 -2 7 3 12 11 12 7 0 14 -7 14 -15z m1553 -5 c0 -5 -8 -14 -18 -19
-14 -7 -23 -5 -35 10 -16 18 -16 19 18 19 19 0 35 -4 35 -10z m-72 -19 c11 -7
11 -17 2 -52 -7 -24 -16 -49 -22 -56 -20 -25 -2 -36 20 -13 20 21 27 44 23 75
0 6 15 18 35 27 33 15 35 15 29 0 -4 -10 -8 -44 -8 -76 -2 -58 -3 -60 -34 -68
-18 -5 -33 -13 -33 -17 0 -20 -63 -22 -130 -6 l-69 17 34 29 c35 31 55 35 87
18 18 -10 20 -9 15 5 -4 9 -2 16 4 16 6 0 8 4 5 9 -4 5 0 11 6 14 10 3 8 9 -5
24 -9 11 -14 23 -10 27 5 4 9 12 9 17 1 5 2 11 3 14 2 8 25 6 39 -4z m-970
-17 c17 -5 20 -9 11 -20 -6 -7 -8 -18 -4 -24 3 -5 -1 -10 -9 -10 -10 0 -16 9
-16 25 0 14 -4 25 -9 25 -12 0 -23 -29 -15 -42 4 -5 -11 -8 -37 -6 -38 3 -73
28 -58 42 10 10 49 -6 49 -20 0 -20 13 -17 27 5 11 17 9 20 -10 24 -14 3 -10
5 13 6 19 0 45 -2 58 -5z m62 -45 c9 -16 7 -19 -10 -19 -15 0 -20 7 -20 26 0
27 14 25 30 -7z"/>
<path d="M4456 4321 c-3 -5 6 -8 19 -8 14 0 25 3 25 8 0 5 -9 9 -19 9 -11 0
-22 -4 -25 -9z"/>
<path d="M4476 4291 c-4 -7 -5 -15 -2 -18 9 -9 19 4 14 18 -4 11 -6 11 -12 0z"/>
<path d="M4530 4290 c0 -5 -9 -18 -20 -28 -13 -12 -18 -25 -14 -35 8 -23 27
-21 20 1 -4 12 1 26 14 37 22 20 26 35 10 35 -5 0 -10 -4 -10 -10z"/>
<path d="M4610 4254 c0 -8 5 -12 10 -9 6 3 10 10 10 16 0 5 -4 9 -10 9 -5 0
-10 -7 -10 -16z"/>
<path d="M4750 4237 c-14 -29 -7 -48 11 -30 6 6 9 21 7 34 l-4 24 -14 -28z"/>
<path d="M4496 4171 c17 -34 38 -39 68 -16 11 8 29 15 40 15 37 0 7 13 -36 15
-24 1 -53 5 -65 10 -22 7 -22 7 -7 -24z"/>
<path d="M4053 4283 c-21 -8 -15 -22 7 -16 11 3 31 -2 45 -11 14 -9 25 -12 25
-6 0 8 -53 42 -62 39 -2 0 -9 -3 -15 -6z"/>
<path d="M3966 4254 c-4 -9 -4 -19 -2 -21 8 -8 26 8 26 23 0 19 -16 18 -24 -2z"/>
<path d="M4055 4219 c-4 -6 -5 -13 -2 -16 7 -7 27 6 27 18 0 12 -17 12 -25 -2z"/>
<path d="M4128 4192 c-8 -9 -24 -22 -34 -28 -10 -7 -16 -15 -12 -19 8 -9 42
13 57 37 16 26 9 32 -11 10z"/>
<path d="M4210 4194 c0 -5 7 -17 14 -27 8 -10 11 -27 8 -39 -3 -14 -1 -19 6
-14 19 11 14 51 -8 71 -11 10 -20 14 -20 9z"/>
<path d="M4010 4137 c0 -7 7 -21 16 -32 12 -16 16 -17 23 -6 6 9 11 10 15 2 4
-6 2 -11 -5 -11 -21 0 3 -17 34 -24 31 -7 37 9 10 31 -34 26 -93 52 -93 40z"/>
<path d="M4175 4130 c-3 -5 -2 -10 4 -10 5 0 13 5 16 10 3 6 2 10 -4 10 -5 0
-13 -4 -16 -10z"/>
<path d="M4030 4071 c0 -5 5 -13 10 -16 6 -3 10 -2 10 4 0 5 -4 13 -10 16 -5
3 -10 2 -10 -4z"/>
<path d="M4270 3804 c0 -9 5 -14 12 -12 18 6 21 28 4 28 -9 0 -16 -7 -16 -16z"/>
<path d="M4312 3795 c-7 -8 -21 -15 -31 -15 -19 0 -48 -27 -39 -36 8 -7 91 41
96 55 5 16 -11 13 -26 -4z"/>
<path d="M4352 3729 c2 -6 8 -10 13 -10 5 0 11 4 13 10 2 6 -4 11 -13 11 -9 0
-15 -5 -13 -11z"/>
<path d="M4220 3713 c0 -4 10 -17 22 -30 22 -24 13 -33 -11 -10 -11 10 -13 9
-9 -3 5 -16 88 -28 88 -13 0 5 -16 17 -35 27 -19 11 -35 23 -35 28 0 4 -4 8
-10 8 -5 0 -10 -3 -10 -7z"/>
<path d="M4570 3425 c6 -8 8 -20 4 -26 -4 -8 -3 -9 4 -5 8 5 11 -3 8 -23 -2
-21 1 -31 10 -31 8 0 14 -5 14 -12 0 -6 3 -8 6 -5 4 4 1 13 -6 22 -17 20 -6
19 16 -2 16 -16 16 -16 9 7 -4 14 -12 27 -16 28 -5 2 -6 9 -3 14 4 6 2 8 -3 5
-6 -4 -14 4 -17 18 -4 14 -14 25 -22 25 -13 0 -14 -3 -4 -15z"/>
<path d="M4386 3401 c-3 -5 1 -11 9 -15 8 -3 15 -1 15 4 0 13 -18 22 -24 11z"/>
<path d="M4427 3395 c-4 -8 -2 -17 2 -20 5 -2 11 4 14 15 6 23 -8 27 -16 5z"/>
<path d="M4476 3374 c-4 -9 -4 -19 -1 -22 3 -3 5 0 5 6 0 7 3 11 8 10 4 -2 8
1 10 7 6 17 -15 16 -22 -1z"/>
<path d="M4510 3353 c-14 -8 -17 -12 -7 -9 9 3 17 1 17 -4 0 -15 17 -12 23 5
9 22 -5 25 -33 8z"/>
<path d="M4550 3340 c0 -5 0 -13 -1 -17 0 -4 8 -10 19 -14 12 -5 19 -3 19 6 0
7 -6 11 -14 8 -9 -4 -11 0 -7 11 3 9 1 16 -5 16 -6 0 -11 -4 -11 -10z"/>
<path d="M4614 3305 c-10 -8 -14 -15 -8 -15 6 0 17 7 24 15 16 19 9 19 -16 0z"/>
<path d="M4607 3223 c-4 -3 -7 -11 -7 -17 0 -6 5 -5 12 2 6 6 9 14 7 17 -3 3
-9 2 -12 -2z"/>
<path d="M4236 3392 c-10 -9 -6 -23 4 -17 6 3 10 0 10 -9 0 -8 -6 -16 -12 -19
-7 -2 -1 -4 14 -4 44 -1 55 22 19 40 -16 8 -32 12 -35 9z"/>
<path d="M4166 3343 c-6 -14 -5 -15 5 -6 7 7 10 15 7 18 -3 3 -9 -2 -12 -12z"/>
<path d="M4331 3321 c-8 -6 -9 -11 -3 -15 6 -3 14 -1 17 5 9 14 2 20 -14 10z"/>
<path d="M4395 3320 c3 -6 13 -10 22 -10 13 0 14 -2 2 -17 -8 -9 -9 -14 -3
-10 7 4 14 -2 17 -13 3 -11 10 -20 16 -20 17 0 13 29 -6 49 -20 20 -58 37 -48
21z"/>
<path d="M4302 3293 c-6 -2 -10 -9 -7 -13 7 -11 35 -2 35 11 0 10 -8 10 -28 2z"/>
<path d="M4345 3289 c-9 -13 -6 -15 25 -23 l25 -7 -23 14 c-12 7 -19 16 -16
20 4 4 5 7 1 7 -3 0 -9 -5 -12 -11z"/>
<path d="M4470 3280 c0 -5 5 -10 10 -10 6 0 10 5 10 10 0 6 -4 10 -10 10 -5 0
-10 -4 -10 -10z"/>
<path d="M4496 3265 c-3 -8 -1 -15 4 -15 6 0 10 4 10 10 0 5 8 7 18 4 14 -5
15 -4 2 5 -20 14 -27 14 -34 -4z"/>
<path d="M4320 3249 c0 -5 5 -7 10 -4 6 3 10 8 10 11 0 2 -4 4 -10 4 -5 0 -10
-5 -10 -11z"/>
<path d="M4346 3233 c-3 -7 -3 -20 0 -28 5 -13 11 -12 35 6 16 11 29 24 29 28
0 13 -59 8 -64 -6z m24 -13 c0 -5 -4 -10 -10 -10 -5 0 -10 5 -10 10 0 6 5 10
10 10 6 0 10 -4 10 -10z"/>
<path d="M4470 3230 c0 -13 5 -17 20 -13 11 3 20 9 20 13 0 4 -9 10 -20 13
-15 4 -20 0 -20 -13z"/>
<path d="M4519 3218 c-1 -2 -3 -20 -4 -40 -3 -29 -1 -36 11 -31 16 6 20 73 4
73 -5 0 -10 -1 -11 -2z"/>
<path d="M4483 3158 c5 -14 1 -18 -15 -18 -18 0 -19 -2 -7 -17 10 -12 11 -15
1 -9 -7 4 -20 2 -29 -5 -8 -7 -25 -18 -37 -24 -13 -7 -20 -19 -19 -34 2 -14
-1 -20 -8 -15 -8 5 -8 1 0 -14 15 -28 14 -32 -4 -26 -8 4 -15 13 -15 22 0 29
-11 5 -13 -30 -3 -31 -1 -35 17 -31 19 3 19 3 4 -8 -15 -12 -14 -14 9 -26 14
-7 30 -10 36 -6 6 3 7 1 3 -5 -5 -8 0 -12 13 -12 14 0 21 6 21 20 0 22 3 23
37 14 12 -3 20 -11 17 -18 -7 -17 42 -60 60 -53 8 3 14 14 14 24 0 10 3 27 7
38 5 16 5 17 -4 5 -8 -12 -11 -12 -11 -1 0 9 -8 11 -25 7 -21 -5 -26 -2 -31
21 -5 18 -3 28 5 31 16 5 -16 42 -32 38 -7 -2 -9 -1 -4 1 4 3 7 12 6 21 0 11
-2 12 -6 5 -8 -21 -23 -15 -20 7 4 27 28 50 34 32 3 -6 9 -10 14 -6 5 3 5 -6
-1 -20 -9 -24 -6 -30 12 -27 3 0 11 -13 17 -29 13 -38 21 -38 21 1 0 17 -4 28
-10 24 -6 -4 -7 5 -4 23 4 19 1 32 -10 41 -9 8 -16 19 -16 25 0 6 -8 20 -17
31 -13 16 -15 17 -10 3z m-78 -125 c15 -22 15 -25 2 -20 -11 4 -14 2 -11 -8 3
-8 11 -12 19 -9 7 3 15 -2 18 -10 7 -18 -1 -46 -13 -46 -5 0 -15 -3 -24 -6
-12 -5 -15 5 -13 60 1 36 3 66 3 66 1 0 10 -12 19 -27z"/>
<path d="M4390 2955 c0 -9 6 -12 15 -9 8 4 12 10 9 15 -8 14 -24 10 -24 -6z"/>
<path d="M4555 2970 c-3 -5 -13 -6 -22 -3 -11 4 -14 3 -9 -5 10 -17 33 -15 40
3 6 17 0 20 -9 5z"/>
<path d="M4238 2963 c6 -2 10 -9 6 -14 -3 -5 0 -9 5 -9 6 0 11 6 11 13 0 9 3
8 9 -2 5 -8 11 -9 15 -3 7 11 -16 22 -42 21 -11 0 -12 -2 -4 -6z"/>
<path d="M4026 3066 c3 -8 12 -17 20 -20 8 -3 14 -17 14 -31 0 -15 4 -24 10
-20 15 9 12 55 -4 55 -8 0 -16 7 -20 15 -3 8 -10 15 -15 15 -6 0 -8 -6 -5 -14z"/>
<path d="M4090 3070 c0 -5 5 -10 10 -10 6 0 10 5 10 10 0 6 -4 10 -10 10 -5 0
-10 -4 -10 -10z"/>
<path d="M3916 3030 c-20 -18 -36 -39 -36 -46 0 -8 18 4 40 27 48 51 46 62 -4
19z"/>
<path d="M4090 2983 c-25 -20 -58 -41 -75 -48 l-30 -13 49 -7 c38 -6 51 -4 64
9 15 15 15 16 0 16 -9 0 -20 -4 -23 -10 -3 -5 -12 -10 -18 -10 -16 1 31 40 48
40 10 0 40 49 33 55 -2 2 -23 -13 -48 -32z"/>
<path d="M3940 2992 c0 -5 7 -13 16 -16 10 -4 14 -1 12 6 -5 15 -28 23 -28 10z"/>
<path d="M4090 2894 c0 -8 5 -12 10 -9 6 3 10 10 10 16 0 5 -4 9 -10 9 -5 0
-10 -7 -10 -16z"/>
<path d="M3830 2890 c0 -13 28 -25 38 -16 3 4 0 11 -8 16 -20 13 -30 12 -30 0z"/>
<path d="M5015 3059 c-4 -5 1 -9 10 -9 9 0 30 -13 46 -29 29 -30 38 -26 19 9
-11 21 -67 43 -75 29z"/>
<path d="M4925 3031 c-3 -11 -15 -23 -26 -26 -21 -7 -22 -36 -1 -43 7 -2 10 2
7 11 -4 8 4 21 19 31 15 9 26 23 26 31 0 22 -18 18 -25 -4z"/>
<path d="M4880 3030 c0 -5 4 -10 9 -10 6 0 13 5 16 10 3 6 -1 10 -9 10 -9 0
-16 -4 -16 -10z"/>
<path d="M4990 2980 c0 -5 5 -10 10 -10 6 0 10 5 10 10 0 6 -4 10 -10 10 -5 0
-10 -4 -10 -10z"/>
<path d="M4865 2908 c11 -36 20 -41 64 -33 44 7 56 25 17 25 -13 0 -29 7 -36
15 -7 8 -21 15 -32 15 -15 0 -18 -5 -13 -22z m45 -18 c0 -5 -2 -10 -4 -10 -3
0 -8 5 -11 10 -3 6 -1 10 4 10 6 0 11 -4 11 -10z"/>
<path d="M3323 2998 c-13 -6 -23 -17 -23 -23 0 -9 13 -6 40 7 22 11 40 22 40
24 0 8 -35 3 -57 -8z"/>
<path d="M3334 2939 c-3 -6 -1 -16 5 -22 8 -8 11 -5 11 11 0 24 -5 28 -16 11z"/>
<path d="M3316 2825 c4 -8 12 -15 20 -15 19 0 18 16 -2 24 -22 9 -24 8 -18 -9z"/>
<path d="M3320 2770 c-6 -11 -7 -20 -3 -20 5 0 16 9 26 20 14 16 14 20 2 20
-8 0 -19 -9 -25 -20z"/>
<path d="M3756 2581 c-22 -24 -13 -41 20 -41 24 0 64 31 64 50 0 17 -14 11
-28 -10 -7 -11 -22 -20 -35 -20 -20 1 -20 2 -4 11 18 10 23 29 9 29 -5 0 -17
-9 -26 -19z"/>
<path d="M5150 2278 c1 -15 36 -42 68 -52 16 -5 22 -3 22 8 0 8 -13 17 -31 21
-17 4 -33 13 -36 21 -6 17 -23 18 -23 2z"/>
<path d="M2810 2225 c-9 -11 -8 -20 10 -45 12 -16 26 -30 31 -30 15 0 11 12
-13 37 -23 25 -18 44 7 23 9 -7 19 -10 23 -6 7 7 -24 36 -39 36 -3 0 -12 -7
-19 -15z"/>
<path d="M3115 4520 c-11 -4 -23 -6 -26 -4 -4 2 -6 -8 -6 -21 0 -19 5 -25 21
-25 11 0 28 5 36 11 11 8 8 9 -15 5 l-30 -6 24 20 c27 23 25 31 -4 20z"/>
<path d="M5240 4505 c0 -8 5 -15 10 -15 6 0 10 -20 10 -45 0 -25 5 -45 10 -45
6 0 10 20 10 45 0 25 5 45 10 45 6 0 10 7 10 15 0 10 -10 15 -30 15 -20 0 -30
-5 -30 -15z"/>
<path d="M5325 4467 c-26 -57 -26 -90 -1 -54 16 21 34 22 58 0 17 -15 18 -15
18 3 -1 10 -12 39 -25 64 l-23 45 -27 -58z m32 -9 c-3 -8 -6 -5 -6 6 -1 11 2
17 5 13 3 -3 4 -12 1 -19z"/>
<path d="M5420 4460 c0 -33 4 -60 10 -60 6 0 10 11 10 24 0 18 6 25 22 28 46
6 29 68 -18 68 -23 0 -24 -3 -24 -60z m45 20 c-3 -5 -10 -10 -16 -10 -5 0 -9
5 -9 10 0 6 7 10 16 10 8 0 12 -4 9 -10z"/>
<path d="M5547 4513 c-11 -10 -8 -113 3 -113 6 0 10 14 10 32 0 33 15 29 22
-6 6 -34 28 -30 35 6 l7 33 6 -30 c8 -48 25 -30 25 28 0 61 -23 73 -39 20 -12
-42 -22 -42 -36 2 -11 34 -20 42 -33 28z"/>
<path d="M5790 4505 c0 -8 5 -15 10 -15 6 0 10 -20 10 -45 0 -25 5 -45 10 -45
6 0 10 20 10 45 0 25 5 45 10 45 6 0 10 7 10 15 0 10 -10 15 -30 15 -20 0 -30
-5 -30 -15z"/>
<path d="M3090 4437 c0 -14 56 -67 71 -67 5 0 2 -11 -7 -25 -8 -13 -13 -29 -9
-34 10 -18 74 -43 91 -37 10 4 23 -2 34 -16 15 -19 20 -20 33 -9 19 15 31 66
20 83 -5 9 -10 -1 -13 -27 -6 -44 -33 -57 -38 -17 -4 26 -10 27 -34 5 -23 -21
-36 -9 -19 18 15 25 9 36 -9 14 -16 -19 -50 -20 -50 -1 0 8 11 23 25 34 33 26
32 30 -12 34 -42 3 -47 17 -14 34 l22 11 -23 7 c-38 10 -68 7 -68 -7z"/>
<path d="M3582 4392 c-22 -23 -22 -25 -6 -43 21 -23 37 -24 55 -3 9 11 10 17
1 23 -6 3 -15 15 -19 26 -8 19 -9 19 -31 -3z m28 -37 c0 -9 -6 -12 -15 -9 -8
4 -12 10 -9 15 8 14 24 10 24 -6z"/>
<path d="M5345 4391 c-3 -5 -1 -12 5 -16 5 -3 10 1 10 9 0 18 -6 21 -15 7z"/>
<path d="M3031 4364 c0 -11 3 -14 6 -6 3 7 2 16 -1 19 -3 4 -6 -2 -5 -13z"/>
<path d="M3685 4370 c-4 -6 -10 -8 -15 -5 -5 3 -11 2 -14 -3 -2 -4 8 -15 24
-24 27 -15 28 -15 28 8 0 27 -13 40 -23 24z"/>
<path d="M2332 4336 c-7 -16 -8 -26 -1 -26 12 0 22 25 17 41 -2 6 -9 0 -16
-15z"/>
<path d="M3043 4305 c0 -22 2 -30 4 -17 2 12 2 30 0 40 -3 9 -5 -1 -4 -23z"/>
<path d="M3647 4324 c-3 -4 4 -15 16 -25 19 -15 20 -21 9 -38 -11 -18 -10 -21
7 -21 16 0 41 -24 91 -87 6 -7 5 -13 -1 -15 -7 -2 -5 -9 5 -17 14 -12 16 -11
16 6 0 21 -44 88 -73 112 -21 17 -22 51 -2 51 8 0 15 5 15 10 0 6 -13 10 -28
10 -15 0 -33 5 -38 10 -6 6 -13 7 -17 4z"/>
<path d="M3036 4195 c-9 -26 -7 -32 5 -12 6 10 9 21 6 23 -2 3 -7 -2 -11 -11z"/>
<path d="M2308 3953 l5 -92 -52 -77 c-28 -42 -51 -81 -51 -87 0 -5 30 34 66
88 48 70 63 100 55 108 -6 6 -11 31 -12 57 -1 25 -4 56 -9 70 -4 14 -5 -16 -2
-67z"/>
<path d="M3270 4026 c0 -8 9 -18 20 -21 28 -9 25 -23 -7 -31 -16 -4 -50 -17
-76 -29 -47 -22 -47 -23 -18 -27 33 -5 223 16 240 26 22 14 11 25 -15 16 -14
-6 -44 -10 -67 -10 -23 0 -57 -4 -75 -9 -19 -6 -32 -6 -32 0 0 5 12 11 28 15
57 12 120 35 138 50 19 15 19 15 -1 9 -56 -18 -77 -17 -106 4 -22 17 -29 18
-29 7z"/>
<path d="M2390 3988 c0 -15 24 -58 32 -58 8 0 1 17 -22 50 -5 8 -10 12 -10 8z"/>
<path d="M3046 3915 c4 -8 11 -15 16 -15 6 0 5 6 -2 15 -7 8 -14 15 -16 15 -2
0 -1 -7 2 -15z"/>
<path d="M2430 3917 c0 -10 20 -50 29 -57 4 -3 14 -17 24 -32 10 -16 22 -28
28 -28 6 0 -1 15 -15 33 -15 17 -30 37 -34 42 -5 6 -14 19 -20 30 -6 11 -12
16 -12 12z"/>
<path d="M3410 3908 c-14 -6 -58 -10 -97 -10 -77 0 -115 -17 -41 -19 100 -2
178 12 178 32 0 11 -8 11 -40 -3z"/>
<path d="M2430 3855 c0 -5 5 -17 10 -25 5 -8 10 -10 10 -5 0 6 -5 17 -10 25
-5 8 -10 11 -10 5z"/>
<path d="M5125 3800 c-3 -6 1 -10 9 -10 9 0 25 -9 36 -20 15 -15 20 -16 20 -5
0 18 -56 49 -65 35z"/>
<path d="M5295 3787 c4 -15 -1 -30 -16 -45 -11 -13 -18 -26 -14 -30 4 -4 15 4
26 17 20 24 26 81 9 81 -6 0 -8 -10 -5 -23z"/>
<path d="M5007 3793 c-4 -3 -7 -11 -7 -17 0 -6 5 -5 12 2 6 6 9 14 7 17 -3 3
-9 2 -12 -2z"/>
<path d="M5026 3764 c-16 -19 -26 -37 -23 -41 8 -7 56 48 57 65 0 16 -1 16
-34 -24z"/>
<path d="M2483 3764 c9 -17 23 -36 31 -43 27 -22 17 2 -15 39 l-31 35 15 -31z"/>
<path d="M5110 3735 c-10 -12 -10 -15 4 -15 9 0 16 7 16 15 0 8 -2 15 -4 15
-2 0 -9 -7 -16 -15z"/>
<path d="M4983 3677 c4 -10 7 -23 7 -27 0 -20 37 -29 74 -19 46 13 47 29 1 29
-20 0 -48 8 -62 17 -26 17 -27 17 -20 0z"/>
<path d="M2126 3545 c-9 -26 -7 -32 5 -12 6 10 9 21 6 23 -2 3 -7 -2 -11 -11z"/>
<path d="M2046 3335 c-3 -9 -6 -24 -5 -33 0 -9 5 -4 10 12 9 32 6 48 -5 21z"/>
<path d="M2095 2759 c8 -108 -6 -278 -36 -427 -11 -57 -19 -106 -16 -108 8 -8
35 119 48 224 13 109 29 120 29 20 0 -55 21 -264 40 -396 5 -36 6 -70 3 -75
-3 -5 -28 -6 -57 -3 -41 6 -49 5 -38 -5 6 -7 12 -36 13 -64 1 -27 5 -61 10
-75 6 -17 7 0 4 52 l-5 76 40 -5 c52 -7 56 4 41 115 -38 281 -65 665 -40 567
5 -21 21 -70 34 -108 14 -38 23 -73 20 -78 -8 -12 24 -71 34 -64 10 6 0 61
-17 90 -21 36 -83 242 -89 294 -11 92 -25 68 -18 -30z"/>
<path d="M1963 2510 c0 -47 2 -66 4 -42 2 23 2 61 0 85 -2 23 -4 4 -4 -43z"/>
<path d="M1970 2387 c0 -14 5 -29 10 -32 7 -4 8 3 4 22 -9 38 -14 42 -14 10z"/>
<path d="M1992 2315 c0 -11 4 -33 8 -50 7 -27 8 -27 8 -5 0 14 -4 36 -8 50 -6
20 -8 21 -8 5z"/>
<path d="M2027 2204 c-3 -6 -14 -33 -23 -60 -9 -27 -29 -68 -45 -91 l-28 -43
37 1 c31 0 34 2 15 9 -21 9 -21 9 19 90 22 44 38 86 36 92 -3 8 -7 8 -11 2z"/>
<path d="M3760 2172 c0 -5 9 -17 20 -27 22 -20 26 -14 10 16 -11 19 -30 26
-30 11z"/>
<path d="M3761 2074 c-15 -11 -34 -14 -57 -11 -37 6 -47 -7 -12 -16 25 -7 67
1 86 16 8 6 12 6 12 0 0 -6 -21 -27 -47 -47 -35 -27 -54 -35 -70 -31 -25 6
-32 -9 -8 -19 20 -7 45 2 72 27 21 19 24 19 48 3 28 -19 52 -62 41 -73 -4 -4
-16 3 -28 17 -16 20 -18 21 -12 5 4 -11 7 -30 7 -42 -1 -30 11 -29 31 2 23 34
20 48 -14 85 -22 23 -28 36 -20 44 12 12 14 56 2 56 -4 0 -18 -7 -31 -16z"/>
<path d="M2018 2003 c6 -2 18 -2 25 0 6 3 1 5 -13 5 -14 0 -19 -2 -12 -5z"/>
<path d="M3724 1938 c-20 -22 -20 -24 -2 -58 11 -22 18 -28 18 -17 0 10 -5 27
-10 38 -8 15 -7 19 4 19 9 0 18 -11 22 -25 3 -14 10 -25 15 -25 13 0 11 13 -5
35 -7 11 -15 28 -17 38 -4 17 -6 17 -25 -5z"/>
<path d="M3580 1931 c0 -5 21 -16 48 -25 26 -9 55 -26 64 -39 10 -12 18 -17
18 -11 0 21 -49 64 -74 64 -14 0 -28 5 -31 10 -8 12 -25 13 -25 1z"/>
<path d="M2136 1625 c4 -27 11 -54 17 -60 7 -7 8 -4 3 9 -5 14 -2 17 9 12 20
-7 19 -6 -10 45 l-25 44 6 -50z"/>
<path d="M2214 1485 c11 -8 24 -15 30 -15 5 0 1 7 -10 15 -10 8 -23 14 -29 14
-5 0 -1 -6 9 -14z"/>
<path d="M2305 1439 c4 -5 12 -9 18 -9 7 0 32 -23 56 -51 85 -99 199 -142 221
-84 5 14 16 25 23 25 13 0 135 -90 136 -100 1 -3 -22 -16 -51 -29 -54 -25 -55
-25 -168 5 -16 4 -21 3 -15 -3 22 -22 129 -42 175 -33 25 5 50 10 55 10 6 1 1
5 -10 10 l-20 9 20 1 c11 2 25 2 32 1 28 -4 20 20 -14 45 -21 15 -59 47 -84
71 -51 49 -70 49 -95 1 -12 -23 -20 -28 -37 -23 -52 16 -105 48 -142 86 l-40
41 55 -6 c30 -3 77 -7 105 -8 38 -2 55 -9 72 -28 12 -14 23 -20 23 -13 0 6 -4
15 -10 18 -17 10 -11 25 9 25 10 0 22 7 25 16 5 12 2 15 -11 9 -51 -20 -194
-13 -301 15 -19 5 -30 5 -27 -1z"/>
<path d="M2307 1413 c-16 -16 -4 -55 35 -114 23 -34 44 -57 46 -51 2 6 -15 36
-38 67 -30 41 -41 64 -37 81 5 26 4 28 -6 17z"/>
<path d="M2411 1277 c30 -28 35 -38 31 -65 -5 -38 -22 -32 -22 8 0 16 -4 31
-9 35 -14 8 -23 -29 -15 -60 8 -33 47 -32 52 2 2 12 11 23 20 25 12 2 5 14
-28 46 -24 23 -49 42 -55 42 -5 0 6 -15 26 -33z"/>
<path d="M2470 515 l0 -195 58 0 c32 0 63 -5 70 -12 10 -10 17 -10 32 0 11 6
45 12 75 12 37 0 55 4 56 13 0 6 1 93 2 192 l2 180 -147 3 -148 3 0 -196z
m130 165 c0 -11 -6 -20 -14 -20 -26 0 -65 -41 -72 -75 -4 -24 -1 -43 12 -64
24 -41 32 -39 36 6 2 27 8 39 21 41 15 3 17 -5 17 -62 0 -61 -2 -66 -21 -66
-12 0 -39 17 -60 39 -35 35 -39 44 -39 88 0 58 21 91 72 116 43 21 48 21 48
-3z m103 -12 c34 -24 47 -55 47 -110 0 -34 -6 -47 -39 -79 -21 -22 -48 -39
-60 -39 -20 0 -21 4 -21 131 l0 130 23 -7 c12 -3 35 -16 50 -26z m-88 -248 c6
0 28 3 51 6 45 6 58 -3 70 -50 7 -29 7 -29 -27 -22 -19 5 -41 7 -49 7 -8 -1
-39 -1 -68 -1 -29 0 -63 -5 -77 -10 -32 -12 -36 -3 -16 43 16 38 17 38 61 33
25 -3 50 -6 55 -6z m-11 -78 c3 -5 -8 -6 -25 -4 -16 2 -29 6 -29 8 0 8 49 4
54 -4z m76 4 c0 -2 -13 -6 -29 -8 -17 -2 -28 -1 -25 4 5 8 54 12 54 4z"/>
<path d="M2663 570 c1 -87 11 -100 40 -51 21 36 21 54 1 97 -28 59 -42 43 -41
-46z"/>
<path d="M3363 456 c-12 -6 -21 -17 -21 -26 0 -8 -7 -32 -16 -52 -16 -38 -11
-49 12 -26 10 10 17 10 33 0 29 -18 31 -13 9 35 -16 37 -17 42 -2 57 20 20 14
25 -15 12z m-6 -78 c-3 -8 -6 -5 -6 6 -1 11 2 17 5 13 3 -3 4 -12 1 -19z"/>
<path d="M3630 455 c0 -8 5 -15 10 -15 6 0 10 7 10 15 0 8 -4 15 -10 15 -5 0
-10 -7 -10 -15z"/>
<path d="M3046 437 c2 -7 -3 -31 -13 -53 l-18 -39 -3 43 c-3 41 -22 61 -22 22
0 -13 -7 -20 -20 -20 -14 0 -20 7 -20 21 0 11 -4 17 -10 14 -5 -3 -10 -24 -10
-45 0 -21 5 -42 10 -45 6 -3 10 3 10 14 0 14 6 21 20 21 11 0 20 -6 20 -14 0
-19 40 -28 47 -10 7 19 33 18 49 -3 7 -10 14 -13 14 -6 0 17 -44 113 -52 113
-4 0 -5 -6 -2 -13z m19 -47 c3 -5 1 -10 -4 -10 -6 0 -11 5 -11 10 0 6 2 10 4
10 3 0 8 -4 11 -10z"/>
<path d="M3963 395 c-12 -30 -17 -55 -12 -55 5 0 9 5 9 10 0 6 9 10 19 10 11
0 23 -4 26 -10 3 -5 10 -10 15 -10 5 0 0 21 -10 46 -11 25 -18 50 -14 55 3 5
1 9 -4 9 -5 0 -18 -25 -29 -55z"/>
<path d="M4612 434 c-8 -8 -12 -32 -10 -56 3 -40 5 -43 36 -45 17 -2 32 2 32
7 0 6 -11 10 -25 10 -15 0 -25 6 -25 14 0 9 7 12 20 9 11 -3 20 0 20 6 0 6 -9
11 -20 11 -11 0 -20 5 -20 10 0 6 11 10 25 10 29 0 31 6 11 26 -18 18 -27 17
-44 -2z"/>
<path d="M2840 382 c0 -33 4 -51 10 -47 6 3 10 18 10 33 l0 27 20 -33 c11 -18
25 -30 30 -27 13 8 13 82 0 90 -6 4 -10 -5 -10 -19 0 -33 -5 -33 -35 2 l-24
27 -1 -53z"/>
<path d="M3140 421 c0 -5 7 -14 15 -21 14 -12 14 -15 0 -36 -21 -32 -19 -41 5
-19 18 16 20 16 36 1 22 -23 32 -11 10 13 -17 18 -17 21 -1 45 10 15 13 26 7
26 -6 0 -16 -8 -22 -17 -10 -17 -10 -17 -20 0 -11 18 -30 23 -30 8z"/>
<path d="M3230 391 c0 -42 18 -65 47 -59 21 4 39 59 27 85 -6 14 -9 9 -13 -22
-4 -27 -12 -41 -23 -43 -15 -3 -18 4 -18 37 0 23 -4 41 -10 41 -5 0 -10 -17
-10 -39z"/>
<path d="M3400 420 c0 -5 7 -10 15 -10 11 0 15 -11 15 -41 0 -24 4 -38 10 -34
6 3 10 20 10 37 0 18 7 36 18 44 15 12 12 13 -25 14 -24 0 -43 -4 -43 -10z"/>
<path d="M3520 380 c0 -46 2 -50 24 -50 40 0 48 21 37 93 0 4 -14 7 -31 7 -29
0 -30 -1 -30 -50z m50 20 c0 -5 -6 -10 -14 -10 -8 0 -18 5 -21 10 -3 6 3 10
14 10 12 0 21 -4 21 -10z m-3 -46 c-3 -4 -14 -3 -24 0 -15 6 -15 8 -3 16 16
10 39 -4 27 -16z"/>
<path d="M3622 413 c-6 -10 -13 -34 -16 -53 -6 -31 -5 -33 7 -17 17 20 47 23
47 3 0 -9 7 -12 20 -9 13 4 20 14 20 32 l1 26 29 -35 c17 -19 30 -32 31 -30 7
53 8 77 2 90 -4 10 -8 4 -12 -20 l-6 -35 -20 33 c-26 42 -35 40 -35 -8 0 -22
-4 -40 -10 -40 -5 0 -14 18 -20 40 -12 43 -24 50 -38 23z m28 -23 c0 -5 -4
-10 -10 -10 -5 0 -10 5 -10 10 0 6 5 10 10 10 6 0 10 -4 10 -10z"/>
<path d="M3818 404 c-13 -28 -5 -49 25 -68 22 -14 52 4 52 30 0 10 -8 20 -17
22 -10 2 -18 -1 -18 -7 0 -6 5 -11 10 -11 6 0 10 -5 10 -11 0 -6 -10 -9 -22
-7 -17 2 -23 10 -23 28 0 21 5 25 28 25 15 -1 27 5 27 12 0 8 -12 13 -30 13
-23 0 -33 -6 -42 -26z"/>
<path d="M3923 380 c0 -30 2 -43 4 -27 2 15 2 39 0 55 -2 15 -4 2 -4 -28z"/>
<path d="M4038 405 c-9 -19 -8 -29 6 -50 20 -30 39 -32 66 -5 24 24 24 29 4
58 -21 30 -61 29 -76 -3z m62 -25 c0 -23 -4 -30 -20 -30 -11 0 -23 7 -26 15
-9 23 3 45 26 45 16 0 20 -7 20 -30z"/>
<path d="M4170 386 c0 -50 10 -61 45 -52 28 7 44 50 28 75 -6 9 -24 17 -42 19
-31 3 -31 3 -31 -42z m58 0 c5 -23 -12 -40 -31 -33 -21 8 -10 59 12 55 9 -2
17 -12 19 -22z"/>
<path d="M4260 391 c0 -48 18 -65 54 -51 22 8 26 16 26 50 0 22 -4 40 -10 40
-5 0 -10 -18 -10 -41 0 -33 -3 -40 -17 -37 -13 2 -19 14 -21 41 -4 49 -22 48
-22 -2z"/>
<path d="M4362 418 c-24 -24 -4 -88 28 -88 20 0 40 13 40 27 0 13 -3 13 -15 3
-22 -18 -45 -5 -45 26 0 24 3 26 31 20 22 -4 29 -2 27 7 -6 17 -50 21 -66 5z"/>
<path d="M4487 385 c19 -56 30 -64 43 -28 6 15 15 36 21 46 6 11 8 21 5 24 -9
9 -26 -8 -26 -27 0 -32 -20 -33 -31 -1 -6 17 -15 31 -19 31 -5 0 -2 -20 7 -45z"/>
<path d="M4573 380 c0 -30 2 -43 4 -27 2 15 2 39 0 55 -2 15 -4 2 -4 -28z"/>
<path d="M4693 416 c10 -8 17 -26 17 -45 0 -17 5 -31 10 -31 6 0 10 16 10 35
0 19 5 35 10 35 6 0 10 5 10 10 0 6 -17 10 -37 10 -34 -1 -36 -2 -20 -14z"/>
<path d="M4800 385 c0 -25 5 -45 10 -45 6 0 8 11 4 25 -3 14 -2 25 3 25 6 0
15 -11 21 -25 18 -40 32 -29 31 23 -1 29 -4 36 -6 20 -5 -35 -16 -35 -33 -3
-20 37 -30 30 -30 -20z"/>
<path d="M4898 385 c-17 -45 -13 -56 10 -33 10 10 17 10 32 0 13 -8 20 -8 20
-2 0 19 -29 80 -37 80 -5 0 -16 -20 -25 -45z m32 5 c0 -5 -5 -10 -11 -10 -5 0
-7 5 -4 10 3 6 8 10 11 10 2 0 4 -4 4 -10z"/>
<path d="M4977 423 c-11 -10 -8 -83 2 -83 5 0 12 10 14 23 l4 22 8 -22 c4 -13
11 -23 15 -23 4 0 11 10 15 23 l8 22 4 -22 c7 -38 19 -26 17 17 -2 53 -11 61
-25 22 -14 -40 -26 -41 -34 -2 -6 29 -15 37 -28 23z"/>
<path d="M4295 320 c-3 -5 -1 -10 4 -10 6 0 11 5 11 10 0 6 -2 10 -4 10 -3 0
-8 -4 -11 -10z"/>
</g>
</svg>
